<svg width="35" height="35" viewBox="0 0 35 35" fill="none" xmlns="http://www.w3.org/2000/svg">
<circle cx="17.5" cy="17.5" r="17.5" fill="#3499D7"/>
<g clip-path="url(#clip0_438_1066)">
<path d="M21 12.75H13C11.9391 12.75 10.9217 13.1648 10.1716 13.9033C9.42143 14.6417 9 15.6432 9 16.6875V22.375C9 22.6071 9.09365 22.8296 9.26035 22.9937C9.42705 23.1578 9.65314 23.25 9.88889 23.25H24.1111C24.3469 23.25 24.573 23.1578 24.7397 22.9937C24.9064 22.8296 25 22.6071 25 22.375V16.6875C25 15.6432 24.5786 14.6417 23.8284 13.9033C23.0783 13.1648 22.0609 12.75 21 12.75ZM15.6667 21.9375H10.3333V16.6875C10.3333 15.9913 10.6143 15.3236 11.1144 14.8313C11.6145 14.3391 12.2928 14.0625 13 14.0625C13.7072 14.0625 14.3855 14.3391 14.8856 14.8313C15.3857 15.3236 15.6667 15.9913 15.6667 16.6875V21.9375ZM23.6667 21.9375H17V16.6875C17 15.6744 16.6006 14.7603 15.9619 14.0625H21C21.707 14.0632 22.3849 14.34 22.8848 14.8321C23.3847 15.3243 23.6659 15.9915 23.6667 16.6875V21.9375ZM21.8889 16.25H18.5556C18.4966 16.25 18.4401 16.273 18.3984 16.3141C18.3567 16.3551 18.3333 16.4107 18.3333 16.4688V17.3438C18.3333 17.4018 18.3567 17.4574 18.3984 17.4984C18.4401 17.5395 18.4966 17.5625 18.5556 17.5625H20.5556V18.4375C20.5556 18.5535 20.6024 18.6648 20.6857 18.7469C20.7691 18.8289 20.8821 18.875 21 18.875H21.8889C22.0068 18.875 22.1198 18.8289 22.2032 18.7469C22.2865 18.6648 22.3333 18.5535 22.3333 18.4375V16.6875C22.3333 16.5715 22.2865 16.4602 22.2032 16.3781C22.1198 16.2961 22.0068 16.25 21.8889 16.25ZM14.1111 16.25H11.8889C11.83 16.25 11.7734 16.273 11.7318 16.3141C11.6901 16.3551 11.6667 16.4107 11.6667 16.4688V17.7812C11.6667 17.8393 11.6901 17.8949 11.7318 17.9359C11.7734 17.977 11.83 18 11.8889 18H14.1111C14.17 18 14.2266 17.977 14.2682 17.9359C14.3099 17.8949 14.3333 17.8393 14.3333 17.7812V16.4688C14.3333 16.4107 14.3099 16.3551 14.2682 16.3141C14.2266 16.273 14.17 16.25 14.1111 16.25Z" fill="white"/>
</g>
<defs>
<clipPath id="clip0_438_1066">
<rect width="16" height="14" fill="white" transform="translate(9 11)"/>
</clipPath>
</defs>
</svg>
