<svg width="35" height="35" viewBox="0 0 35 35" fill="none" xmlns="http://www.w3.org/2000/svg">
<circle cx="17.5" cy="17.5" r="17.5" fill="#3499D7"/>
<g clip-path="url(#clip0_438_1072)">
<path d="M23.0985 11.5815L20.7067 11.0306C20.1582 10.9036 19.5996 11.188 19.3787 11.706L18.2742 14.2831C18.0711 14.7554 18.2082 15.314 18.6069 15.639L19.6225 16.4692C18.8963 17.7997 17.7994 18.8966 16.469 19.6202L15.6387 18.6046C15.3137 18.206 14.7551 18.0688 14.2828 18.272L11.7031 19.3765C11.1852 19.5974 10.9033 20.156 11.0278 20.7044L11.5787 23.0962C11.7006 23.6269 12.1678 23.9976 12.7112 23.9976C18.9293 24.0001 23.9998 18.9651 23.9998 12.714C23.9998 12.1706 23.6291 11.7034 23.0985 11.5815ZM12.7594 22.7813L12.2287 20.4784L14.7221 19.4095L16.1363 21.1386C18.6449 19.9604 19.9602 18.6503 21.1383 16.1366L19.4092 14.7224L20.4781 12.229L22.7811 12.7597C22.7557 18.2847 18.2844 22.756 12.7594 22.7813Z" fill="white"/>
</g>
<defs>
<clipPath id="clip0_438_1072">
<rect width="13" height="13" fill="white" transform="translate(11 11)"/>
</clipPath>
</defs>
</svg>
