<svg width="45" height="45" viewBox="0 0 45 45" fill="none" xmlns="http://www.w3.org/2000/svg">
<circle cx="22.5" cy="22.5" r="22.5" fill="#3499D7"/>
<path d="M25.6562 9.25H20.3438" stroke="white" stroke-width="0.796875" stroke-miterlimit="2" stroke-linecap="round" stroke-linejoin="round"/>
<path d="M24.5938 11.375H21.4062" stroke="white" stroke-width="0.796875" stroke-miterlimit="2" stroke-linecap="round" stroke-linejoin="round"/>
<path d="M25.6562 34.75H20.3438" stroke="white" stroke-width="0.796875" stroke-miterlimit="2" stroke-linecap="round" stroke-linejoin="round"/>
<path d="M24.5938 32.625H21.4062" stroke="white" stroke-width="0.796875" stroke-miterlimit="2" stroke-linecap="round" stroke-linejoin="round"/>
<path d="M24.0625 11.375V32.625" stroke="white" stroke-width="0.796875" stroke-miterlimit="2" stroke-linecap="round" stroke-linejoin="round"/>
<path d="M21.9375 11.375V25.4531" stroke="white" stroke-width="0.796875" stroke-miterlimit="2" stroke-linecap="round" stroke-linejoin="round"/>
<path d="M21.9375 27.5781V30.5" stroke="white" stroke-width="0.796875" stroke-miterlimit="2" stroke-linecap="round" stroke-linejoin="round"/>
<path d="M11.3125 16.1562C11.8993 16.1562 12.375 15.6806 12.375 15.0938C12.375 14.5069 11.8993 14.0312 11.3125 14.0312C10.7257 14.0312 10.25 14.5069 10.25 15.0938C10.25 15.6806 10.7257 16.1562 11.3125 16.1562Z" stroke="white" stroke-width="0.796875" stroke-miterlimit="2" stroke-linecap="round" stroke-linejoin="round"/>
<path d="M18.9747 14.7755C19.5615 14.7755 20.0372 14.2998 20.0372 13.713C20.0372 13.1262 19.5615 12.6505 18.9747 12.6505C18.3879 12.6505 17.9122 13.1262 17.9122 13.713C17.9122 14.2998 18.3879 14.7755 18.9747 14.7755Z" stroke="white" stroke-width="0.796875" stroke-miterlimit="2" stroke-linecap="round" stroke-linejoin="round"/>
<path d="M16.625 24.6955C17.2118 24.6955 17.6875 24.2199 17.6875 23.633C17.6875 23.0462 17.2118 22.5705 16.625 22.5705C16.0382 22.5705 15.5625 23.0462 15.5625 23.633C15.5625 24.2199 16.0382 24.6955 16.625 24.6955Z" stroke="white" stroke-width="0.796875" stroke-miterlimit="2" stroke-linecap="round" stroke-linejoin="round"/>
<path d="M12.9062 31.6151C13.4931 31.6151 13.9688 31.1394 13.9688 30.5526C13.9688 29.9658 13.4931 29.4901 12.9062 29.4901C12.3194 29.4901 11.8438 29.9658 11.8438 30.5526C11.8438 31.1394 12.3194 31.6151 12.9062 31.6151Z" stroke="white" stroke-width="0.796875" stroke-miterlimit="2" stroke-linecap="round" stroke-linejoin="round"/>
<path d="M26.1875 19.0781H34.4219C34.7741 19.0781 35.112 18.9384 35.3611 18.6892C35.6103 18.4401 35.75 18.1022 35.75 17.75C35.75 17.0163 35.1555 16.4219 34.4219 16.4219C33.9926 16.4219 33.625 16.4219 33.625 16.4219" stroke="white" stroke-width="0.796875" stroke-miterlimit="2" stroke-linecap="round" stroke-linejoin="round"/>
<path d="M26.1875 24.9219H34.4219C34.7741 24.9219 35.112 25.0616 35.3611 25.3107C35.6103 25.5599 35.75 25.8978 35.75 26.25C35.75 26.9837 35.1555 27.5781 34.4219 27.5781C33.9926 27.5781 33.625 27.5781 33.625 27.5781" stroke="white" stroke-width="0.796875" stroke-miterlimit="2" stroke-linecap="round" stroke-linejoin="round"/>
<path d="M25.5744 14.5099H30.0656C30.5645 14.5099 30.9687 14.1056 30.9687 13.6068C30.9687 13.1079 30.5645 12.7031 30.0656 12.7031C29.9695 12.7031 29.9062 12.7031 29.9062 12.7031" stroke="white" stroke-width="0.796875" stroke-miterlimit="2" stroke-linecap="round" stroke-linejoin="round"/>
<path d="M25.5744 29.4901H30.0656C30.5645 29.4901 30.9687 29.8944 30.9687 30.3932C30.9687 30.8921 30.5645 31.2969 30.0656 31.2969C29.9695 31.2969 29.9062 31.2969 29.9062 31.2969" stroke="white" stroke-width="0.796875" stroke-miterlimit="2" stroke-linecap="round" stroke-linejoin="round"/>
</svg>
