<svg width="20" height="20" viewBox="0 0 20 20" fill="none" xmlns="http://www.w3.org/2000/svg">
<path d="M10 1.29032C14.7831 1.29032 18.7097 5.16431 18.7097 10C18.7097 14.8101 14.8141 18.7097 10 18.7097C5.19177 18.7097 1.29032 14.816 1.29032 10C1.29032 5.19343 5.18556 1.29032 10 1.29032ZM10 0C4.47754 0 0 4.47915 0 10C0 15.5241 4.47754 20 10 20C15.5225 20 20 15.5241 20 10C20 4.47915 15.5225 0 10 0ZM8.54839 13.871H9.03226V9.03226H8.54839C8.28117 9.03226 8.06452 8.8156 8.06452 8.54839V8.22581C8.06452 7.95859 8.28117 7.74194 8.54839 7.74194H10.4839C10.7511 7.74194 10.9677 7.95859 10.9677 8.22581V13.871H11.4516C11.7188 13.871 11.9355 14.0876 11.9355 14.3548V14.6774C11.9355 14.9446 11.7188 15.1613 11.4516 15.1613H8.54839C8.28117 15.1613 8.06452 14.9446 8.06452 14.6774V14.3548C8.06452 14.0876 8.28117 13.871 8.54839 13.871ZM10 4.19355C9.28738 4.19355 8.70968 4.77125 8.70968 5.48387C8.70968 6.19649 9.28738 6.77419 10 6.77419C10.7126 6.77419 11.2903 6.19649 11.2903 5.48387C11.2903 4.77125 10.7126 4.19355 10 4.19355Z" fill="#3499D7"/>
</svg>
