<svg width="45" height="45" viewBox="0 0 45 45" fill="none" xmlns="http://www.w3.org/2000/svg">
<circle cx="22.5" cy="22.5" r="22.5" fill="#3499D7"/>
<g clip-path="url(#clip0_126_257)">
<path d="M22.357 11.152C22.266 11.058 22.14 10.999 22 10.999C21.858 10.999 21.731 11.06 21.64 11.155L18.647 14.148C18.452 14.343 18.452 14.66 18.647 14.855C18.842 15.05 19.159 15.05 19.354 14.855L21.5 12.709V14.499C21.5 15.78 21.849 16.338 22.13 16.786C22.345 17.129 22.5 17.377 22.5 17.972C22.5 18.536 22.204 18.808 21.681 19.24C21.155 19.675 20.5 20.216 20.5 21.278C20.5 22.339 21.156 22.88 21.682 23.315C22.204 23.747 22.5 24.018 22.5 24.581C22.5 25.145 22.204 25.417 21.682 25.849C21.155 26.284 20.5 26.825 20.5 27.887C20.5 28.949 21.155 29.49 21.681 29.925C22.204 30.357 22.5 30.629 22.5 31.193C22.5 31.757 22.204 32.029 21.681 32.462C21.155 32.897 20.5 33.439 20.5 34.501C20.5 34.777 20.724 35.001 21 35.001C21.276 35.001 21.5 34.777 21.5 34.501C21.5 33.937 21.796 33.665 22.318 33.232C22.845 32.797 23.5 32.256 23.5 31.193C23.5 30.131 22.844 29.589 22.318 29.154C21.796 28.721 21.5 28.45 21.5 27.886C21.5 27.322 21.796 27.05 22.318 26.618C22.845 26.183 23.5 25.642 23.5 24.58C23.5 23.519 22.844 22.978 22.318 22.543C21.795 22.112 21.5 21.841 21.5 21.278C21.5 20.714 21.796 20.442 22.318 20.01C22.845 19.575 23.5 19.033 23.5 17.971C23.5 17.089 23.223 16.646 22.978 16.255C22.732 15.863 22.5 15.493 22.5 14.499V12.709L24.646 14.855C24.744 14.952 24.872 15.001 25 15.001C25.128 15.001 25.256 14.952 25.354 14.855C25.549 14.66 25.549 14.343 25.354 14.148L22.357 11.152ZM14.357 11.152C14.266 11.058 14.14 10.999 14 10.999C13.858 10.999 13.731 11.06 13.64 11.155L10.647 14.148C10.452 14.343 10.452 14.66 10.647 14.855C10.842 15.05 11.159 15.05 11.354 14.855L13.5 12.709V14.499C13.5 15.78 13.849 16.338 14.13 16.786C14.345 17.129 14.5 17.377 14.5 17.972C14.5 18.536 14.204 18.808 13.681 19.24C13.155 19.675 12.5 20.216 12.5 21.278C12.5 22.339 13.156 22.88 13.682 23.315C14.203 23.747 14.5 24.018 14.5 24.581C14.5 25.145 14.204 25.417 13.682 25.849C13.155 26.284 12.5 26.825 12.5 27.887C12.5 28.949 13.155 29.49 13.681 29.925C14.203 30.357 14.5 30.629 14.5 31.193C14.5 31.757 14.204 32.029 13.681 32.462C13.155 32.897 12.5 33.439 12.5 34.501C12.5 34.777 12.724 35.001 13 35.001C13.276 35.001 13.5 34.777 13.5 34.501C13.5 33.937 13.796 33.665 14.318 33.232C14.845 32.797 15.5 32.256 15.5 31.193C15.5 30.131 14.844 29.589 14.318 29.154C13.796 28.721 13.5 28.45 13.5 27.886C13.5 27.322 13.796 27.05 14.318 26.618C14.845 26.183 15.5 25.642 15.5 24.58C15.5 23.519 14.844 22.978 14.318 22.543C13.794 22.112 13.5 21.841 13.5 21.278C13.5 20.714 13.796 20.442 14.318 20.01C14.845 19.575 15.5 19.033 15.5 17.971C15.5 17.089 15.223 16.646 14.978 16.255C14.732 15.863 14.5 15.493 14.5 14.499V12.709L16.646 14.855C16.744 14.952 16.872 15.001 17 15.001C17.128 15.001 17.256 14.952 17.354 14.855C17.549 14.66 17.549 14.343 17.354 14.148L14.357 11.152ZM33.354 14.148L30.358 11.152C30.266 11.058 30.14 10.999 30 10.999C29.858 10.999 29.731 11.06 29.64 11.155L26.647 14.148C26.452 14.343 26.452 14.66 26.647 14.855C26.842 15.05 27.159 15.05 27.354 14.855L29.5 12.709V14.499C29.5 15.78 29.849 16.338 30.13 16.786C30.345 17.129 30.5 17.377 30.5 17.972C30.5 18.536 30.204 18.808 29.681 19.24C29.155 19.675 28.5 20.216 28.5 21.278C28.5 22.339 29.156 22.88 29.682 23.315C30.204 23.747 30.5 24.018 30.5 24.581C30.5 25.145 30.204 25.417 29.682 25.849C29.155 26.284 28.5 26.825 28.5 27.887C28.5 28.949 29.155 29.49 29.681 29.925C30.204 30.357 30.5 30.629 30.5 31.193C30.5 31.757 30.204 32.029 29.681 32.462C29.155 32.897 28.5 33.439 28.5 34.501C28.5 34.777 28.724 35.001 29 35.001C29.276 35.001 29.5 34.777 29.5 34.501C29.5 33.937 29.796 33.665 30.318 33.232C30.845 32.797 31.5 32.256 31.5 31.193C31.5 30.131 30.844 29.589 30.318 29.154C29.796 28.721 29.5 28.45 29.5 27.886C29.5 27.322 29.796 27.05 30.318 26.618C30.845 26.183 31.5 25.642 31.5 24.58C31.5 23.519 30.844 22.978 30.318 22.543C29.795 22.112 29.5 21.841 29.5 21.278C29.5 20.714 29.796 20.442 30.318 20.01C30.845 19.575 31.5 19.033 31.5 17.971C31.5 17.089 31.223 16.646 30.978 16.255C30.732 15.863 30.5 15.493 30.5 14.499V12.709L32.646 14.855C32.744 14.952 32.872 15.001 33 15.001C33.128 15.001 33.256 14.952 33.354 14.855C33.549 14.66 33.549 14.343 33.354 14.148Z" fill="white"/>
</g>
<defs>
<clipPath id="clip0_126_257">
<rect width="24" height="24" fill="white" transform="translate(10 11)"/>
</clipPath>
</defs>
</svg>
