<svg width="35" height="35" viewBox="0 0 35 35" fill="none" xmlns="http://www.w3.org/2000/svg">
<g clip-path="url(#clip0_1_865)">
<path d="M15.5066 24.8098C17.5267 25.3607 19.5775 25.0415 21.2603 24.0799C22.9427 23.1185 24.2588 21.5137 24.8098 19.4934C25.3607 17.4733 25.0414 15.4224 24.0799 13.7397C23.1185 12.0573 21.5137 10.7411 19.4934 10.1902C17.4734 9.63926 15.4225 9.95853 13.7398 10.9201C12.0573 11.8815 10.7412 13.4863 10.1902 15.5066C9.6393 17.5266 9.95856 19.5775 10.9201 21.2602C11.8815 22.9426 13.4863 24.2588 15.5066 24.8098ZM20.6816 23.0683C19.2554 23.8833 17.5194 24.1545 15.8119 23.6889C14.1047 23.2233 12.7469 22.1081 11.9317 20.6816C11.1167 19.2553 10.8455 17.5194 11.3111 15.8119C11.7767 14.1047 12.8919 12.7468 14.3185 11.9317C15.7447 11.1167 17.4806 10.8455 19.1881 11.3111C20.8953 11.7767 22.2532 12.8919 23.0683 14.3184C23.8833 15.7446 24.1546 17.4806 23.6889 19.1881C23.2233 20.8953 22.1081 22.2532 20.6816 23.0683Z" fill="white"/>
<path d="M14.48 30.0703L17.9268 26.6541L18.4848 26.101L17.7257 25.894L13.0437 24.6171L12.2847 24.4101L12.4848 25.1707L13.72 29.8638L13.9203 30.625L14.48 30.0703ZM16.7281 26.5627L14.3989 28.8713L13.5642 25.6999L16.7281 26.5627Z" fill="white"/>
<path d="M20.6011 6.12877L21.4357 9.3002L18.2719 8.43734L20.6011 6.12877ZM22.5152 9.82938L21.28 5.13622L21.0797 4.37504L20.52 4.92974L17.0732 8.34601L16.5152 8.89902L17.2743 9.10601L21.9563 10.3829L22.7153 10.59L22.5152 9.82938Z" fill="white"/>
<path d="M24.2526 28.5246L24.2742 23.6717L24.2777 22.8842L23.5943 23.2748L19.3807 25.6825L18.697 26.0732L19.379 26.471L23.5709 28.9162L24.2491 29.3118L24.2526 28.5246ZM23.363 24.4556L23.3484 27.7339L20.5166 26.0821L23.363 24.4556Z" fill="white"/>
<path d="M11.6516 7.26618L14.4834 8.91797L11.637 10.5445L11.6516 7.26618ZM15.6211 8.52903L11.4291 6.08388L10.7509 5.68827L10.7474 6.47544L10.7258 11.3284L10.7223 12.1158L11.4057 11.7253L15.6193 9.31753L16.303 8.92683L15.6211 8.52903Z" fill="white"/>
<path d="M30.0703 20.52L26.6541 17.0732L26.1011 16.5152L25.8941 17.2743L24.6171 21.9563L24.4101 22.7153L25.1707 22.5152L29.8639 21.28L30.6251 21.0797L30.0703 20.52ZM26.5627 18.2719L28.8713 20.6011L25.6999 21.4358L26.5627 18.2719Z" fill="white"/>
<path d="M6.12873 14.3989L9.30016 13.5642L8.43729 16.7281L6.12873 14.3989ZM9.82934 12.4848L5.13617 13.72L4.375 13.9203L4.9297 14.48L8.34597 17.9268L8.89898 18.4847L9.10597 17.7257L10.3829 13.0437L10.5899 12.2846L9.82934 12.4848Z" fill="white"/>
<path d="M28.5245 10.7473L23.6716 10.7257L22.8842 10.7222L23.2747 11.4057L25.6824 15.6192L26.0731 16.303L26.4709 15.621L28.9161 11.429L29.3117 10.7508L28.5245 10.7473ZM24.4555 11.637L27.7338 11.6516L26.082 14.4834L24.4555 11.637Z" fill="white"/>
<path d="M7.26625 23.3484L8.91803 20.5166L10.5445 23.3629L7.26625 23.3484ZM8.52909 19.3789L6.08394 23.5709L5.68835 24.2491L6.4755 24.2526L11.3284 24.2742L12.1159 24.2777L11.7253 23.5943L9.31759 19.3807L8.9269 18.697L8.52909 19.3789Z" fill="white"/>
</g>
<defs>
<clipPath id="clip0_1_865">
<rect width="35" height="35" fill="white" transform="matrix(1 0 0 -1 0 35)"/>
</clipPath>
</defs>
</svg>
