<svg width="45" height="45" viewBox="0 0 45 45" fill="none" xmlns="http://www.w3.org/2000/svg">
<circle cx="22.5" cy="22.5" r="22.5" fill="#3499D7"/>
<g clip-path="url(#clip0_125_1227)">
<path d="M19.5066 29.8098C21.5267 30.3607 23.5775 30.0415 25.2603 29.0799C26.9427 28.1186 28.2588 26.5137 28.8098 24.4934C29.3607 22.4734 29.0414 20.4225 28.0799 18.7397C27.1185 17.0573 25.5137 15.7412 23.4934 15.1902C21.4734 14.6393 19.4225 14.9586 17.7398 15.9201C16.0573 16.8815 14.7412 18.4863 14.1902 20.5066C13.6393 22.5267 13.9586 24.5775 14.9201 26.2603C15.8815 27.9427 17.4863 29.2588 19.5066 29.8098ZM24.6816 28.0684C23.2554 28.8833 21.5194 29.1546 19.8119 28.6889C18.1047 28.2233 16.7469 27.1081 15.9317 25.6816C15.1167 24.2554 14.8455 22.5194 15.3111 20.812C15.7767 19.1047 16.8919 17.7469 18.3185 16.9317C19.7447 16.1167 21.4806 15.8455 23.1881 16.3111C24.8953 16.7767 26.2532 17.8919 27.0683 19.3184C27.8833 20.7447 28.1546 22.4806 27.6889 24.1881C27.2233 25.8953 26.1081 27.2532 24.6816 28.0684Z" fill="white"/>
<path d="M18.48 35.0703L21.9268 31.6541L22.4848 31.101L21.7257 30.894L17.0437 29.6171L16.2847 29.4101L16.4848 30.1707L17.72 34.8638L17.9203 35.625L18.48 35.0703ZM20.7281 31.5627L18.3989 33.8713L17.5642 30.6999L20.7281 31.5627Z" fill="white"/>
<path d="M24.6011 11.1287L25.4357 14.3001L22.2719 13.4373L24.6011 11.1287ZM26.5152 14.8293L25.28 10.1362L25.0797 9.37498L24.52 9.92968L21.0732 13.346L20.5152 13.899L21.2743 14.106L25.9563 15.3829L26.7153 15.5899L26.5152 14.8293Z" fill="white"/>
<path d="M28.2526 33.5245L28.2742 28.6716L28.2777 27.8842L27.5943 28.2747L23.3807 30.6824L22.697 31.0731L23.379 31.4709L27.5709 33.9161L28.2491 34.3117L28.2526 33.5245ZM27.363 29.4555L27.3484 32.7338L24.5166 31.082L27.363 29.4555Z" fill="white"/>
<path d="M15.6516 12.2662L18.4834 13.918L15.637 15.5445L15.6516 12.2662ZM19.6211 13.529L15.4291 11.0839L14.7509 10.6883L14.7474 11.4754L14.7258 16.3284L14.7223 17.1158L15.4057 16.7253L19.6193 14.3175L20.303 13.9268L19.6211 13.529Z" fill="white"/>
<path d="M34.0703 25.52L30.6541 22.0732L30.1011 21.5152L29.8941 22.2743L28.6171 26.9563L28.4101 27.7153L29.1707 27.5152L33.8639 26.28L34.6251 26.0797L34.0703 25.52ZM30.5627 23.2719L32.8713 25.6011L29.6999 26.4358L30.5627 23.2719Z" fill="white"/>
<path d="M10.1287 19.3989L13.3002 18.5643L12.4373 21.7281L10.1287 19.3989ZM13.8293 17.4848L9.13617 18.72L8.375 18.9203L8.9297 19.48L12.346 22.9268L12.899 23.4848L13.106 22.7257L14.3829 18.0437L14.5899 17.2847L13.8293 17.4848Z" fill="white"/>
<path d="M32.5245 15.7474L27.6716 15.7258L26.8842 15.7223L27.2747 16.4057L29.6824 20.6193L30.0731 21.303L30.4709 20.6211L32.9161 16.4291L33.3117 15.7509L32.5245 15.7474ZM28.4555 16.637L31.7338 16.6516L30.082 19.4834L28.4555 16.637Z" fill="white"/>
<path d="M11.2662 28.3484L12.918 25.5166L14.5445 28.363L11.2662 28.3484ZM12.5291 24.379L10.0839 28.5709L9.68835 29.2491L10.4755 29.2526L15.3284 29.2742L16.1159 29.2777L15.7253 28.5943L13.3176 24.3807L12.9269 23.697L12.5291 24.379Z" fill="white"/>
</g>
<defs>
<clipPath id="clip0_125_1227">
<rect width="35" height="35" fill="white" transform="matrix(1 0 0 -1 4 40)"/>
</clipPath>
</defs>
</svg>
