<svg width="45" height="45" viewBox="0 0 45 45" fill="none" xmlns="http://www.w3.org/2000/svg">
<circle cx="22.5" cy="22.5" r="22.5" fill="#3499D7"/>
<path d="M32.7187 27.8125C31.4062 27.8125 30.1375 27.4625 29.1312 26.8062C28.125 27.4625 26.9 27.8125 25.5875 27.8125C24.275 27.8125 23.0062 27.4625 22 26.8062C20.9937 27.4625 19.725 27.8125 18.4125 27.8125C17.1 27.8125 15.8312 27.4625 14.825 26.8062C13.8187 27.4625 12.55 27.8125 11.2375 27.8125C10.3625 27.8125 9.44374 27.6375 8.65624 27.3312C8.43749 27.2437 8.30624 26.9812 8.39374 26.7625C8.48124 26.5437 8.74374 26.4125 8.96249 26.5C9.66249 26.7625 10.4062 26.9375 11.1937 26.9375C12.4187 26.9375 13.6 26.5875 14.5187 25.9312C14.6937 25.8 14.8687 25.8 15.0437 25.9312C15.9187 26.5875 17.1 26.9375 18.3687 26.9375C19.5937 26.9375 20.775 26.5875 21.6937 25.9312C21.8687 25.8 22.0437 25.8 22.2187 25.9312C23.0937 26.5875 24.275 26.9375 25.5437 26.9375C26.8125 26.9375 27.95 26.5875 28.8687 25.9312C29.0437 25.8 29.2187 25.8 29.3937 25.9312C30.2687 26.5875 31.45 26.9375 32.7187 26.9375C33.5062 26.9375 34.2937 26.8062 34.95 26.5C35.1687 26.4125 35.4312 26.5 35.5187 26.7625C35.6062 26.9812 35.5187 27.2437 35.2562 27.3312C34.5125 27.6375 33.5937 27.8125 32.7187 27.8125Z" fill="white"/>
<path d="M32.7187 30.4375C31.4062 30.4375 30.1375 30.0875 29.1312 29.4312C28.125 30.0875 26.9 30.4375 25.5875 30.4375C24.275 30.4375 23.0062 30.0875 22 29.4312C20.9937 30.0875 19.725 30.4375 18.4125 30.4375C17.1 30.4375 15.8312 30.0875 14.825 29.4312C13.8187 30.0875 12.55 30.4375 11.2375 30.4375C10.3625 30.4375 9.44374 30.2625 8.65624 29.9562C8.43749 29.8687 8.30624 29.6062 8.39374 29.3875C8.48124 29.1687 8.74374 29.0375 8.96249 29.125C9.66249 29.3875 10.4062 29.5625 11.1937 29.5625C12.4187 29.5625 13.6 29.2125 14.5187 28.5562C14.6937 28.425 14.8687 28.425 15.0437 28.5562C15.9187 29.2125 17.1 29.5625 18.3687 29.5625C19.5937 29.5625 20.775 29.2125 21.6937 28.5562C21.8687 28.425 22.0437 28.425 22.2187 28.5562C23.0937 29.2125 24.275 29.5625 25.5437 29.5625C26.8125 29.5625 27.95 29.2125 28.8687 28.5562C29.0437 28.425 29.2187 28.425 29.3937 28.5562C30.2687 29.2125 31.45 29.5625 32.7187 29.5625C33.5062 29.5625 34.2937 29.4312 34.95 29.125C35.1687 29.0375 35.4312 29.125 35.5187 29.3875C35.6062 29.65 35.5187 29.8687 35.2562 29.9562C34.5125 30.2625 33.5937 30.4375 32.7187 30.4375Z" fill="white"/>
<path d="M33.0687 22.6937C32.5875 22.6937 32.1062 22.6062 31.625 22.3437L31.5812 22.3C30.8812 21.8187 30.575 21.075 30.7937 20.2875C30.9687 19.6312 31.45 19.1062 32.0625 18.8C31.7562 18.5812 31.4062 18.4062 31.0125 18.4062C30.1375 18.3187 29.0875 18.8 28.125 19.7187C26.6812 21.075 24.275 22.2125 22.6125 21.775C21.7812 21.5562 21.2125 20.9437 20.9937 20.0687C20.7312 19.0625 20.9937 18.1437 21.6937 17.575C22.3937 17.0062 23.4 16.9187 24.45 17.2687C24.3187 16.2625 23.575 15.3437 22.4375 14.775C20.9937 14.0312 18.675 13.9437 16.6187 15.8687C15.4812 17.05 14.8687 18.0125 14.3437 18.8875C13.2937 20.5937 12.6375 21.6875 9.00623 22.125C8.74373 22.1687 8.56873 21.9937 8.52498 21.7312C8.48123 21.4687 8.65623 21.2937 8.91873 21.25C12.1125 20.8562 12.6375 20.025 13.6 18.4062C14.125 17.5312 14.7812 16.4812 16.0062 15.2125C18.4125 12.9375 21.0812 13.0687 22.8312 13.9437C24.5375 14.8187 25.5 16.3937 25.325 17.9687C25.325 18.1 25.2375 18.2312 25.1062 18.3187C24.975 18.4062 24.8437 18.3625 24.7125 18.3187C23.7937 17.7937 22.875 17.7937 22.3062 18.2312C21.8687 18.5812 21.7375 19.15 21.9125 19.8062C22.0875 20.375 22.3937 20.7687 22.9187 20.9C24.2312 21.25 26.3312 20.2437 27.6 19.0625C28.7812 17.9687 30.05 17.4 31.1875 17.4875C32.0187 17.575 32.7625 17.9687 33.3312 18.7125C33.4187 18.8437 33.4625 19.0187 33.375 19.15C33.3312 19.2812 33.1562 19.4125 33.025 19.4125C32.4562 19.4562 31.8875 19.8937 31.7562 20.4625C31.6687 20.725 31.7125 21.1625 32.1937 21.5125C33.025 21.9062 33.7687 21.8187 35.125 21.25C35.3437 21.1625 35.6062 21.25 35.6937 21.4687C35.7812 21.6875 35.6937 21.95 35.475 22.0375C34.4687 22.475 33.7687 22.6937 33.0687 22.6937Z" fill="white"/>
<path d="M32.7187 25.1875C31.4062 25.1875 30.1375 24.8375 29.1312 24.1812C28.125 24.8375 26.9 25.1875 25.5875 25.1875C24.275 25.1875 23.0062 24.8375 22 24.1812C20.9937 24.8375 19.725 25.1875 18.4125 25.1875C17.1 25.1875 15.8312 24.8375 14.825 24.1812C13.8187 24.8375 12.55 25.1875 11.2375 25.1875C10.3625 25.1875 9.44374 25.0125 8.65624 24.7062C8.43749 24.6187 8.30624 24.3562 8.39374 24.1375C8.56874 23.875 8.83124 23.7875 9.04999 23.875C9.74999 24.1375 10.4937 24.3125 11.2812 24.3125C12.5062 24.3125 13.6875 23.9625 14.6062 23.3062C14.7812 23.175 14.9562 23.175 15.1312 23.3062C16.0062 23.9625 17.1875 24.3125 18.4562 24.3125C19.6812 24.3125 20.8625 23.9625 21.7812 23.3062C21.9562 23.175 22.1312 23.175 22.3062 23.3062C23.1812 23.9625 24.3625 24.3125 25.6312 24.3125C26.9 24.3125 28.0375 23.9625 28.9562 23.3062C29.1312 23.175 29.3062 23.175 29.4812 23.3062C30.3562 23.9625 31.5375 24.3125 32.8062 24.3125C33.5937 24.3125 34.3812 24.1812 35.0375 23.875C35.2562 23.7875 35.5187 23.875 35.6062 24.1375C35.6937 24.3562 35.6062 24.6187 35.3437 24.7062C34.5125 25.0125 33.5937 25.1875 32.7187 25.1875Z" fill="white"/>
</svg>
