<svg width="86" height="86" viewBox="0 0 86 86" fill="none" xmlns="http://www.w3.org/2000/svg">
<path d="M27.2683 0L28.445 2.43527C29.7812 5.20195 33.3932 5.91932 35.6858 3.87629L37.7037 2.07659L37.8589 4.77615C38.0351 7.84278 41.0975 9.8879 43.9984 8.87688L46.5512 7.98751L45.6618 10.5402C44.6508 13.4412 46.6959 16.5036 49.7625 16.6798L52.4621 16.835L50.6624 18.8529C48.6194 21.1455 49.3367 24.7575 52.1034 26.0937L54.5366 27.2683L52.1013 28.445C49.3346 29.7812 48.6173 33.3932 50.6603 35.6858L52.46 37.7037L49.7604 37.8589C46.6938 38.0351 44.6487 41.0975 45.6597 43.9984L46.5491 46.5512L43.9963 45.6618C41.0954 44.6508 38.033 46.6959 37.8568 49.7625L37.7016 52.4621L35.6837 50.6624C33.3911 48.6194 29.7791 49.3367 28.4429 52.1034L27.2683 54.5366L26.0916 52.1013C24.7554 49.3346 21.1434 48.6173 18.8508 50.6603L16.8329 52.46L16.6777 49.7604C16.5015 46.6938 13.4391 44.6487 10.5381 45.6597L7.98542 46.5491L8.87478 43.9963C9.88581 41.0954 7.84068 38.033 4.77405 37.8568L2.07659 37.7037L3.87629 35.6858C5.91932 33.3932 5.20195 29.7812 2.43527 28.445L0 27.2683L2.43527 26.0916C5.20195 24.7554 5.91932 21.1434 3.87629 18.8508L2.07659 16.8329L4.77615 16.6777C7.84278 16.5015 9.8879 13.4391 8.87688 10.5381L7.98751 7.98751L10.5402 8.87688C13.4412 9.8879 16.5036 7.84278 16.6798 4.77615L16.835 2.07659L18.8529 3.87629C21.1455 5.91932 24.7575 5.20195 26.0937 2.43527L27.2683 0Z" fill="url(#paint0_radial_438_627)"/>
<path d="M56.6342 56.6341C69.3772 56.6341 79.7074 46.3039 79.7074 33.561C79.7074 20.818 69.3772 10.4878 56.6342 10.4878C43.8912 10.4878 33.561 20.818 33.561 33.561C33.561 46.3039 43.8912 56.6341 56.6342 56.6341Z" fill="#7DA6D9"/>
<path d="M69.2195 62.9268C78.4871 62.9268 85.9999 55.4139 85.9999 46.1463C85.9999 36.8787 78.4871 29.3658 69.2195 29.3658C59.9518 29.3658 52.439 36.8787 52.439 46.1463C52.439 55.4139 59.9518 62.9268 69.2195 62.9268Z" fill="#7DA6D9"/>
<path d="M56.6342 67.1219C67.0602 67.1219 75.5122 58.67 75.5122 48.2439C75.5122 37.8178 67.0602 29.3658 56.6342 29.3658C46.2081 29.3658 37.7561 37.8178 37.7561 48.2439C37.7561 58.67 46.2081 67.1219 56.6342 67.1219Z" fill="#7DA6D9"/>
<path d="M33.561 65.0244C42.8286 65.0244 50.3415 57.5115 50.3415 48.2439C50.3415 38.9763 42.8286 31.4634 33.561 31.4634C24.2934 31.4634 16.7805 38.9763 16.7805 48.2439C16.7805 57.5115 24.2934 65.0244 33.561 65.0244Z" fill="#7DA6D9"/>
<path d="M44.0488 65.0244C54.4749 65.0244 62.9269 56.5724 62.9269 46.1464C62.9269 35.7203 54.4749 27.2683 44.0488 27.2683C33.6228 27.2683 25.1708 35.7203 25.1708 46.1464C25.1708 56.5724 33.6228 65.0244 44.0488 65.0244Z" fill="#7DA6D9"/>
<path d="M20.9757 60.8292C29.0848 60.8292 35.6586 54.2555 35.6586 46.1463C35.6586 38.0371 29.0848 31.4634 20.9757 31.4634C12.8665 31.4634 6.29272 38.0371 6.29272 46.1463C6.29272 54.2555 12.8665 60.8292 20.9757 60.8292Z" fill="#7DA6D9"/>
<path d="M31.4634 50.3414C39.5726 50.3414 46.1464 43.7677 46.1464 35.6585C46.1464 27.5494 39.5726 20.9756 31.4634 20.9756C23.3543 20.9756 16.7805 27.5494 16.7805 35.6585C16.7805 43.7677 23.3543 50.3414 31.4634 50.3414Z" fill="#7DA6D9"/>
<path d="M41.9513 69.2195C41.9513 71.5373 40.074 73.4146 37.7562 73.4146C35.4384 73.4146 33.561 71.5373 33.561 69.2195C33.561 65.8634 36.9171 60.8292 37.7562 60.8292C38.5952 60.8292 41.9513 65.8634 41.9513 69.2195Z" fill="url(#paint1_radial_438_627)"/>
<path d="M56.6342 56.6341C69.3772 56.6341 79.7074 46.3039 79.7074 33.561C79.7074 20.818 69.3772 10.4878 56.6342 10.4878C43.8912 10.4878 33.561 20.818 33.561 33.561C33.561 46.3039 43.8912 56.6341 56.6342 56.6341Z" fill="url(#paint2_radial_438_627)"/>
<path d="M69.2195 62.9268C78.4871 62.9268 85.9999 55.4139 85.9999 46.1463C85.9999 36.8787 78.4871 29.3658 69.2195 29.3658C59.9518 29.3658 52.439 36.8787 52.439 46.1463C52.439 55.4139 59.9518 62.9268 69.2195 62.9268Z" fill="url(#paint3_radial_438_627)"/>
<path d="M56.6342 67.1219C67.0602 67.1219 75.5122 58.67 75.5122 48.2439C75.5122 37.8178 67.0602 29.3658 56.6342 29.3658C46.2081 29.3658 37.7561 37.8178 37.7561 48.2439C37.7561 58.67 46.2081 67.1219 56.6342 67.1219Z" fill="url(#paint4_radial_438_627)"/>
<path d="M33.561 65.0244C42.8286 65.0244 50.3415 57.5115 50.3415 48.2439C50.3415 38.9763 42.8286 31.4634 33.561 31.4634C24.2934 31.4634 16.7805 38.9763 16.7805 48.2439C16.7805 57.5115 24.2934 65.0244 33.561 65.0244Z" fill="url(#paint5_radial_438_627)"/>
<path d="M44.0488 65.0244C54.4749 65.0244 62.9269 56.5724 62.9269 46.1464C62.9269 35.7203 54.4749 27.2683 44.0488 27.2683C33.6228 27.2683 25.1708 35.7203 25.1708 46.1464C25.1708 56.5724 33.6228 65.0244 44.0488 65.0244Z" fill="url(#paint6_radial_438_627)"/>
<path d="M20.9757 60.8292C29.0848 60.8292 35.6586 54.2555 35.6586 46.1463C35.6586 38.0371 29.0848 31.4634 20.9757 31.4634C12.8665 31.4634 6.29272 38.0371 6.29272 46.1463C6.29272 54.2555 12.8665 60.8292 20.9757 60.8292Z" fill="url(#paint7_radial_438_627)"/>
<path d="M31.4634 50.3414C39.5726 50.3414 46.1464 43.7677 46.1464 35.6585C46.1464 27.5494 39.5726 20.9756 31.4634 20.9756C23.3543 20.9756 16.7805 27.5494 16.7805 35.6585C16.7805 43.7677 23.3543 50.3414 31.4634 50.3414Z" fill="url(#paint8_radial_438_627)"/>
<path d="M62.9268 80.7561C62.9268 83.6528 60.5796 86 57.6829 86C54.7861 86 52.439 83.6528 52.439 80.7561C52.439 76.561 56.6341 70.2683 57.6829 70.2683C58.7316 70.2683 62.9268 76.561 62.9268 80.7561Z" fill="url(#paint9_radial_438_627)"/>
<path d="M25.1708 78.6586C25.1708 80.9764 23.2934 82.8537 20.9756 82.8537C18.6578 82.8537 16.7805 80.9764 16.7805 78.6586C16.7805 75.3025 20.1366 70.2683 20.9756 70.2683C21.8147 70.2683 25.1708 75.3025 25.1708 78.6586Z" fill="url(#paint10_radial_438_627)"/>
<path d="M79.7073 73.4147C79.7073 75.7325 77.8299 77.6098 75.5121 77.6098C73.1943 77.6098 71.317 75.7325 71.317 73.4147C71.317 70.0586 74.6731 65.0244 75.5121 65.0244C76.3512 65.0244 79.7073 70.0586 79.7073 73.4147Z" fill="url(#paint11_radial_438_627)"/>
<defs>
<radialGradient id="paint0_radial_438_627" cx="0" cy="0" r="1" gradientUnits="userSpaceOnUse" gradientTransform="translate(27.2683 27.2683) scale(27.2683)">
<stop stop-color="#FFE16E"/>
<stop offset="0.583" stop-color="#FCBF22"/>
<stop offset="0.654" stop-color="#FEA20F"/>
<stop offset="0.718" stop-color="#FF8C00"/>
<stop offset="0.797" stop-color="#FFA300"/>
<stop offset="0.928" stop-color="#FFC400"/>
<stop offset="1" stop-color="#FFD000"/>
</radialGradient>
<radialGradient id="paint1_radial_438_627" cx="0" cy="0" r="1" gradientUnits="userSpaceOnUse" gradientTransform="translate(37.8366 68.2399) rotate(-90) scale(5.63195 4.65481)">
<stop stop-color="#B3F1FF"/>
<stop offset="0.166" stop-color="#9EE4FC"/>
<stop offset="0.509" stop-color="#68C2F3"/>
<stop offset="0.996" stop-color="#118CE6"/>
<stop offset="1" stop-color="#108CE6"/>
</radialGradient>
<radialGradient id="paint2_radial_438_627" cx="0" cy="0" r="1" gradientUnits="userSpaceOnUse" gradientTransform="translate(56.6342 33.561) scale(23.0732)">
<stop stop-color="#E0ECFF"/>
<stop offset="1" stop-color="#E0ECFF" stop-opacity="0"/>
</radialGradient>
<radialGradient id="paint3_radial_438_627" cx="0" cy="0" r="1" gradientUnits="userSpaceOnUse" gradientTransform="translate(69.2195 46.1463) scale(16.7805)">
<stop stop-color="#E0ECFF"/>
<stop offset="1" stop-color="#E0ECFF" stop-opacity="0"/>
</radialGradient>
<radialGradient id="paint4_radial_438_627" cx="0" cy="0" r="1" gradientUnits="userSpaceOnUse" gradientTransform="translate(56.6342 48.2439) scale(18.878)">
<stop stop-color="#E0ECFF"/>
<stop offset="1" stop-color="#E0ECFF" stop-opacity="0"/>
</radialGradient>
<radialGradient id="paint5_radial_438_627" cx="0" cy="0" r="1" gradientUnits="userSpaceOnUse" gradientTransform="translate(33.561 48.2439) scale(16.7805)">
<stop stop-color="#E0ECFF"/>
<stop offset="1" stop-color="#E0ECFF" stop-opacity="0"/>
</radialGradient>
<radialGradient id="paint6_radial_438_627" cx="0" cy="0" r="1" gradientUnits="userSpaceOnUse" gradientTransform="translate(44.0488 46.1464) scale(18.878)">
<stop stop-color="#E0ECFF"/>
<stop offset="1" stop-color="#E0ECFF" stop-opacity="0"/>
</radialGradient>
<radialGradient id="paint7_radial_438_627" cx="0" cy="0" r="1" gradientUnits="userSpaceOnUse" gradientTransform="translate(20.9757 46.1463) scale(14.6829)">
<stop stop-color="#E0ECFF"/>
<stop offset="1" stop-color="#E0ECFF" stop-opacity="0"/>
</radialGradient>
<radialGradient id="paint8_radial_438_627" cx="0" cy="0" r="1" gradientUnits="userSpaceOnUse" gradientTransform="translate(31.4634 35.6585) scale(14.6829)">
<stop stop-color="#E0ECFF"/>
<stop offset="1" stop-color="#E0ECFF" stop-opacity="0"/>
</radialGradient>
<radialGradient id="paint9_radial_438_627" cx="0" cy="0" r="1" gradientUnits="userSpaceOnUse" gradientTransform="translate(57.7823 79.5353) rotate(-90) scale(7.03941 5.81808)">
<stop stop-color="#B3F1FF"/>
<stop offset="0.166" stop-color="#9EE4FC"/>
<stop offset="0.509" stop-color="#68C2F3"/>
<stop offset="0.996" stop-color="#118CE6"/>
<stop offset="1" stop-color="#108CE6"/>
</radialGradient>
<radialGradient id="paint10_radial_438_627" cx="0" cy="0" r="1" gradientUnits="userSpaceOnUse" gradientTransform="translate(21.0566 77.679) rotate(-90) scale(5.63195 4.65481)">
<stop stop-color="#B3F1FF"/>
<stop offset="0.166" stop-color="#9EE4FC"/>
<stop offset="0.509" stop-color="#68C2F3"/>
<stop offset="0.996" stop-color="#118CE6"/>
<stop offset="1" stop-color="#108CE6"/>
</radialGradient>
<radialGradient id="paint11_radial_438_627" cx="0" cy="0" r="1" gradientUnits="userSpaceOnUse" gradientTransform="translate(75.5926 72.4351) rotate(-90) scale(5.63195 4.65481)">
<stop stop-color="#B3F1FF"/>
<stop offset="0.166" stop-color="#9EE4FC"/>
<stop offset="0.509" stop-color="#68C2F3"/>
<stop offset="0.996" stop-color="#118CE6"/>
<stop offset="1" stop-color="#108CE6"/>
</radialGradient>
</defs>
</svg>
