<svg width="41" height="38" viewBox="0 0 41 38" fill="none" xmlns="http://www.w3.org/2000/svg">
<path d="M24 24C30.6274 24 36 18.6274 36 12C36 5.37258 30.6274 0 24 0C17.3726 0 12 5.37258 12 12C12 18.6274 17.3726 24 24 24Z" fill="#7DA6D9"/>
<path d="M32 26C36.9706 26 41 21.9706 41 17C41 12.0294 36.9706 8 32 8C27.0294 8 23 12.0294 23 17C23 21.9706 27.0294 26 32 26Z" fill="#7DA6D9"/>
<path d="M26 28C30.9706 28 35 23.9706 35 19C35 14.0294 30.9706 10 26 10C21.0294 10 17 14.0294 17 19C17 23.9706 21.0294 28 26 28Z" fill="#7DA6D9"/>
<path d="M15 27C19.9706 27 24 22.9706 24 18C24 13.0294 19.9706 9 15 9C10.0294 9 6 13.0294 6 18C6 22.9706 10.0294 27 15 27Z" fill="#7DA6D9"/>
<path d="M20 27C24.9706 27 29 22.9706 29 18C29 13.0294 24.9706 9 20 9C15.0294 9 11 13.0294 11 18C11 22.9706 15.0294 27 20 27Z" fill="#7DA6D9"/>
<path d="M8 26C12.4183 26 16 22.4183 16 18C16 13.5817 12.4183 10 8 10C3.58172 10 0 13.5817 0 18C0 22.4183 3.58172 26 8 26Z" fill="#7DA6D9"/>
<path d="M13 18C16.866 18 20 14.866 20 11C20 7.13401 16.866 4 13 4C9.13401 4 6 7.13401 6 11C6 14.866 9.13401 18 13 18Z" fill="#7DA6D9"/>
<path d="M16 18H24L21 26H25L17 38L18 30H14L16 18Z" fill="#FFA200"/>
<path d="M16.034 18H23.948L20.966 26.017H24.948L17.025 37.931L18.025 29.983H14.034L16.034 18Z" fill="#FFA301"/>
<path d="M16.069 18H23.897L20.931 26.034H24.897L17.049 37.862L18.051 29.966H14.069L16.069 18Z" fill="#FFA402"/>
<path d="M16.103 18H23.845L20.897 26.052H24.845L17.074 37.793L18.076 29.948H14.103L16.103 18Z" fill="#FFA503"/>
<path d="M16.138 18H23.793L20.862 26.069H24.793L17.099 37.725L18.101 29.931H14.138L16.138 18Z" fill="#FFA604"/>
<path d="M16.172 18H23.741L20.828 26.086H24.741L17.123 37.656L18.127 29.914H14.172L16.172 18Z" fill="#FFA704"/>
<path d="M16.207 18H23.69L20.793 26.103H24.69L17.148 37.587L18.152 29.897H14.207L16.207 18Z" fill="#FFA805"/>
<path d="M16.241 18H23.638L20.759 26.121H24.638L17.173 37.518L18.177 29.879H14.241L16.241 18Z" fill="#FFA906"/>
<path d="M16.276 18H23.586L20.724 26.138H24.586L17.197 37.449L18.202 29.862H14.276L16.276 18Z" fill="#FFAA07"/>
<path d="M16.31 18H23.534L20.69 26.155H24.534L17.222 37.38L18.228 29.845H14.31L16.31 18Z" fill="#FFAB08"/>
<path d="M16.345 18H23.483L20.655 26.172H24.483L17.246 37.311L18.253 29.828H14.345L16.345 18Z" fill="#FFAC09"/>
<path d="M16.379 18H23.431L20.621 26.19H24.431L17.271 37.242L18.278 29.81H14.379L16.379 18Z" fill="#FFAD0A"/>
<path d="M16.414 18H23.379L20.586 26.207H24.379L17.296 37.174L18.304 29.793H14.414L16.414 18Z" fill="#FFAE0B"/>
<path d="M16.448 18H23.328L20.552 26.224H24.328L17.32 37.105L18.329 29.776H14.448L16.448 18Z" fill="#FFAF0B"/>
<path d="M16.483 18H23.276L20.517 26.241H24.276L17.345 37.036L18.354 29.759H14.483L16.483 18Z" fill="#FFB00C"/>
<path d="M16.517 18H23.224L20.483 26.259H24.224L17.37 36.967L18.38 29.741H14.517L16.517 18Z" fill="#FFB10D"/>
<path d="M16.552 18H23.172L20.448 26.276H24.172L17.394 36.898L18.405 29.724H14.552L16.552 18Z" fill="#FFB20E"/>
<path d="M16.586 18H23.121L20.414 26.293H24.121L17.419 36.829L18.43 29.707H14.586L16.586 18Z" fill="#FFB30F"/>
<path d="M16.621 18H23.069L20.379 26.31H24.069L17.444 36.76L18.456 29.69H14.621L16.621 18Z" fill="#FFB410"/>
<path d="M16.655 18H23.017L20.345 26.328H24.017L17.468 36.691L18.481 29.672H14.655L16.655 18Z" fill="#FFB511"/>
<path d="M16.69 18H22.966L20.31 26.345H23.966L17.493 36.623L18.506 29.655H14.69L16.69 18Z" fill="#FFB612"/>
<path d="M16.724 18H22.914L20.276 26.362H23.914L17.518 36.554L18.532 29.638H14.724L16.724 18Z" fill="#FFB712"/>
<path d="M16.759 18H22.862L20.241 26.379H23.862L17.542 36.485L18.557 29.621H14.759L16.759 18Z" fill="#FFB813"/>
<path d="M16.793 18H22.81L20.207 26.397H23.81L17.567 36.416L18.582 29.603H14.793L16.793 18Z" fill="#FFB914"/>
<path d="M16.828 18H22.759L20.172 26.414H23.759L17.591 36.347L18.607 29.586H14.828L16.828 18Z" fill="#FFBA15"/>
<path d="M16.862 18H22.707L20.138 26.431H23.707L17.616 36.278L18.633 29.569H14.862L16.862 18Z" fill="#FFBB16"/>
<path d="M16.897 18H22.655L20.103 26.448H23.655L17.641 36.209L18.658 29.552H14.897L16.897 18Z" fill="#FFBC17"/>
<path d="M16.931 18H22.603L20.069 26.466H23.603L17.665 36.14L18.683 29.534H14.931L16.931 18Z" fill="#FFBD18"/>
<path d="M16.966 18H22.552L20.034 26.483H23.552L17.69 36.072L18.709 29.517H14.966L16.966 18Z" fill="#FFBE19"/>
<path d="M17 18H22.5L20 26.5H23.5L17.715 36.003L18.734 29.5H15L17 18Z" fill="#FFBF1A"/>
<path d="M17.034 18H22.448L19.966 26.517H23.448L17.739 35.934L18.759 29.483H15.034L17.034 18Z" fill="#FFBF1A"/>
<path d="M17.069 18H22.397L19.931 26.534H23.397L17.764 35.865L18.785 29.466H15.069L17.069 18Z" fill="#FFC01B"/>
<path d="M17.103 18H22.345L19.897 26.552H23.345L17.789 35.796L18.81 29.448H15.103L17.103 18Z" fill="#FFC11C"/>
<path d="M17.138 18H22.293L19.862 26.569H23.293L17.813 35.727L18.835 29.431H15.138L17.138 18Z" fill="#FFC21D"/>
<path d="M17.172 18H22.241L19.828 26.586H23.241L17.838 35.658L18.861 29.414H15.172L17.172 18Z" fill="#FFC31E"/>
<path d="M17.207 18H22.19L19.793 26.603H23.19L17.863 35.59L18.886 29.397H15.207L17.207 18Z" fill="#FFC41F"/>
<path d="M17.241 18H22.138L19.759 26.621H23.138L17.887 35.521L18.911 29.379H15.241L17.241 18Z" fill="#FFC520"/>
<path d="M17.276 18H22.086L19.724 26.638H23.086L17.912 35.452L18.936 29.362H15.276L17.276 18Z" fill="#FFC621"/>
<path d="M17.31 18H22.034L19.69 26.655H23.034L17.937 35.383L18.962 29.345H15.31L17.31 18Z" fill="#FFC721"/>
<path d="M17.345 18H21.983L19.655 26.672H22.983L17.961 35.314L18.987 29.328H15.345L17.345 18Z" fill="#FFC822"/>
<path d="M17.379 18H21.931L19.621 26.69H22.931L17.986 35.245L19.012 29.31H15.379L17.379 18Z" fill="#FFC923"/>
<path d="M17.414 18H21.879L19.586 26.707H22.879L18.01 35.176L19.038 29.293H15.414L17.414 18Z" fill="#FFCA24"/>
<path d="M17.448 18H21.828L19.552 26.724H22.828L18.035 35.107L19.063 29.276H15.448L17.448 18Z" fill="#FFCB25"/>
<path d="M17.483 18H21.776L19.517 26.741H22.776L18.06 35.039L19.088 29.259H15.483L17.483 18Z" fill="#FFCC26"/>
<path d="M17.517 18H21.724L19.483 26.759H22.724L18.084 34.97L19.114 29.241H15.517L17.517 18Z" fill="#FFCD27"/>
<path d="M17.552 18H21.672L19.448 26.776H22.672L18.109 34.901L19.139 29.224H15.552L17.552 18Z" fill="#FFCE28"/>
<path d="M17.586 18H21.621L19.414 26.793H22.621L18.134 34.832L19.164 29.207H15.586L17.586 18Z" fill="#FFCF28"/>
<path d="M17.621 18H21.569L19.379 26.81H22.569L18.158 34.763L19.19 29.19H15.621L17.621 18Z" fill="#FFD029"/>
<path d="M17.655 18H21.517L19.345 26.828H22.517L18.183 34.694L19.215 29.172H15.655L17.655 18Z" fill="#FFD12A"/>
<path d="M17.69 18H21.466L19.31 26.845H22.466L18.208 34.625L19.24 29.155H15.69L17.69 18Z" fill="#FFD22B"/>
<path d="M17.724 18H21.414L19.276 26.862H22.414L18.232 34.556L19.266 29.138H15.724L17.724 18Z" fill="#FFD32C"/>
<path d="M17.759 18H21.362L19.241 26.879H22.362L18.257 34.488L19.291 29.121H15.759L17.759 18Z" fill="#FFD42D"/>
<path d="M17.793 18H21.31L19.207 26.897H22.31L18.282 34.419L19.316 29.103H15.793L17.793 18Z" fill="#FFD52E"/>
<path d="M17.828 18H21.259L19.172 26.914H22.259L18.306 34.35L19.341 29.086H15.828L17.828 18Z" fill="#FFD62F"/>
<path d="M17.862 18H21.207L19.138 26.931H22.207L18.331 34.281L19.367 29.069H15.862L17.862 18Z" fill="#FFD72F"/>
<path d="M17.897 18H21.155L19.103 26.948H22.155L18.355 34.212L19.392 29.052H15.897L17.897 18Z" fill="#FFD830"/>
<path d="M17.931 18H21.103L19.069 26.966H22.103L18.38 34.143L19.417 29.034H15.931L17.931 18Z" fill="#FFD931"/>
<path d="M17.966 18H21.052L19.034 26.983H22.052L18.405 34.074L19.443 29.017H15.966L17.966 18Z" fill="#FFDA32"/>
<path d="M18 18H21L19 27H22L18.429 34.005L19.468 29H16L18 18Z" fill="#FFDB33"/>
<path d="M24 24C30.6274 24 36 18.6274 36 12C36 5.37258 30.6274 0 24 0C17.3726 0 12 5.37258 12 12C12 18.6274 17.3726 24 24 24Z" fill="url(#paint0_radial_212_387)"/>
<path d="M32 26C36.9706 26 41 21.9706 41 17C41 12.0294 36.9706 8 32 8C27.0294 8 23 12.0294 23 17C23 21.9706 27.0294 26 32 26Z" fill="url(#paint1_radial_212_387)"/>
<path d="M26 26C30.9706 26 35 21.9706 35 17C35 12.0294 30.9706 8 26 8C21.0294 8 17 12.0294 17 17C17 21.9706 21.0294 26 26 26Z" fill="url(#paint2_radial_212_387)"/>
<path d="M15 26C19.9706 26 24 21.9706 24 17C24 12.0294 19.9706 8 15 8C10.0294 8 6 12.0294 6 17C6 21.9706 10.0294 26 15 26Z" fill="url(#paint3_radial_212_387)"/>
<path d="M20 25C24.9706 25 29 20.9706 29 16C29 11.0294 24.9706 7 20 7C15.0294 7 11 11.0294 11 16C11 20.9706 15.0294 25 20 25Z" fill="url(#paint4_radial_212_387)"/>
<path d="M8 26C12.4183 26 16 22.4183 16 18C16 13.5817 12.4183 10 8 10C3.58172 10 0 13.5817 0 18C0 22.4183 3.58172 26 8 26Z" fill="url(#paint5_radial_212_387)"/>
<path d="M13 18C16.866 18 20 14.866 20 11C20 7.13401 16.866 4 13 4C9.13401 4 6 7.13401 6 11C6 14.866 9.13401 18 13 18Z" fill="url(#paint6_radial_212_387)"/>
<path d="M29 35.5C29 36.881 27.881 38 26.5 38C25.119 38 24 36.881 24 35.5C24 33.5 26 30.5 26.5 30.5C27 30.5 29 33.5 29 35.5Z" fill="url(#paint7_radial_212_387)"/>
<path d="M11 32.5C11 33.605 10.105 34.5 9 34.5C7.895 34.5 7 33.605 7 32.5C7 30.9 8.6 28.5 9 28.5C9.4 28.5 11 30.9 11 32.5Z" fill="url(#paint8_radial_212_387)"/>
<path d="M37 31C37 32.105 36.105 33 35 33C33.895 33 33 32.105 33 31C33 29.4 34.6 27 35 27C35.4 27 37 29.4 37 31Z" fill="url(#paint9_radial_212_387)"/>
<defs>
<radialGradient id="paint0_radial_212_387" cx="0" cy="0" r="1" gradientUnits="userSpaceOnUse" gradientTransform="translate(24 12) scale(12)">
<stop stop-color="#E0ECFF"/>
<stop offset="1" stop-color="#E0ECFF" stop-opacity="0"/>
</radialGradient>
<radialGradient id="paint1_radial_212_387" cx="0" cy="0" r="1" gradientUnits="userSpaceOnUse" gradientTransform="translate(32 17) scale(9)">
<stop stop-color="#E0ECFF"/>
<stop offset="1" stop-color="#E0ECFF" stop-opacity="0"/>
</radialGradient>
<radialGradient id="paint2_radial_212_387" cx="0" cy="0" r="1" gradientUnits="userSpaceOnUse" gradientTransform="translate(26 17) scale(9)">
<stop stop-color="#E0ECFF"/>
<stop offset="1" stop-color="#E0ECFF" stop-opacity="0"/>
</radialGradient>
<radialGradient id="paint3_radial_212_387" cx="0" cy="0" r="1" gradientUnits="userSpaceOnUse" gradientTransform="translate(15 17) scale(9)">
<stop stop-color="#E0ECFF"/>
<stop offset="1" stop-color="#E0ECFF" stop-opacity="0"/>
</radialGradient>
<radialGradient id="paint4_radial_212_387" cx="0" cy="0" r="1" gradientUnits="userSpaceOnUse" gradientTransform="translate(20 16) scale(9)">
<stop stop-color="#E0ECFF"/>
<stop offset="1" stop-color="#E0ECFF" stop-opacity="0"/>
</radialGradient>
<radialGradient id="paint5_radial_212_387" cx="0" cy="0" r="1" gradientUnits="userSpaceOnUse" gradientTransform="translate(8 18) scale(8)">
<stop stop-color="#E0ECFF"/>
<stop offset="1" stop-color="#E0ECFF" stop-opacity="0"/>
</radialGradient>
<radialGradient id="paint6_radial_212_387" cx="0" cy="0" r="1" gradientUnits="userSpaceOnUse" gradientTransform="translate(13 11) scale(7)">
<stop stop-color="#E0ECFF"/>
<stop offset="1" stop-color="#E0ECFF" stop-opacity="0"/>
</radialGradient>
<radialGradient id="paint7_radial_212_387" cx="0" cy="0" r="1" gradientUnits="userSpaceOnUse" gradientTransform="translate(26.5474 34.918) rotate(-90) scale(3.356 2.77373)">
<stop stop-color="#B3F1FF"/>
<stop offset="0.166" stop-color="#9EE4FC"/>
<stop offset="0.509" stop-color="#68C2F3"/>
<stop offset="0.996" stop-color="#118CE6"/>
<stop offset="1" stop-color="#108CE6"/>
</radialGradient>
<radialGradient id="paint8_radial_212_387" cx="0" cy="0" r="1" gradientUnits="userSpaceOnUse" gradientTransform="translate(9.0386 32.033) rotate(-90) scale(2.685 2.21915)">
<stop stop-color="#B3F1FF"/>
<stop offset="0.166" stop-color="#9EE4FC"/>
<stop offset="0.509" stop-color="#68C2F3"/>
<stop offset="0.996" stop-color="#118CE6"/>
<stop offset="1" stop-color="#108CE6"/>
</radialGradient>
<radialGradient id="paint9_radial_212_387" cx="0" cy="0" r="1" gradientUnits="userSpaceOnUse" gradientTransform="translate(35.0389 30.533) rotate(-90) scale(2.685 2.21915)">
<stop stop-color="#B3F1FF"/>
<stop offset="0.166" stop-color="#9EE4FC"/>
<stop offset="0.509" stop-color="#68C2F3"/>
<stop offset="0.996" stop-color="#118CE6"/>
<stop offset="1" stop-color="#108CE6"/>
</radialGradient>
</defs>
</svg>
