<svg width="42" height="38" viewBox="0 0 42 38" fill="none" xmlns="http://www.w3.org/2000/svg">
<path d="M41.9421 18.8367C39.8056 9.70781 31.391 4.04492 22.1671 3.59219V1.1875C22.1671 0.534375 21.6421 0 21.0004 0C20.3587 0 19.8337 0.534375 19.8337 1.1875V3.59219C10.6462 4.0375 2.25351 9.64102 0.0587232 18.8293C-0.378777 20.6031 1.72122 22.1023 3.27435 20.6922C6.88372 17.2707 9.82956 18.6363 12.4181 22.748C13.2493 24.0691 14.9556 24.0023 15.7431 22.748C16.8514 21.0039 18.0181 19.4082 19.841 18.9258V33.2574C19.841 34.5711 18.7983 35.6324 17.5077 35.6324C16.516 35.6324 15.6337 34.9941 15.3056 34.0516C15.0868 33.4355 14.4233 33.109 13.8181 33.3242C13.2129 33.5395 12.8921 34.2223 13.1108 34.8383C13.7671 36.7309 15.5389 38.0074 17.515 38.0074C20.0889 38.0074 22.1816 35.8773 22.1816 33.2574V18.9406C24.3764 19.5566 25.4337 21.4121 26.2796 22.7406C27.0671 24.0023 28.7806 24.0543 29.6046 22.7406C32.2441 18.5918 35.19 17.3227 38.7483 20.6848C40.2723 22.0875 42.3723 20.6105 41.9421 18.8367ZM27.9493 20.9668C26.1775 18.0203 23.7275 16.4023 21.0004 16.4023C17.7556 16.4023 15.7796 18.4062 14.0952 20.9668C11.0618 15.9348 6.25664 15.2148 2.71289 18.05C5.25768 10.2941 13.0379 5.9375 21.0004 5.9375C28.9702 5.9375 36.8233 10.3387 39.3171 18.0871C35.066 14.8289 30.9973 16.4617 27.9493 20.9668Z" fill="#3499D7"/>
</svg>
