<svg width="42" height="42" viewBox="0 0 42 42" fill="none" xmlns="http://www.w3.org/2000/svg">
<g clip-path="url(#clip0_134_437)">
<path d="M0.65625 18.375H28.875C33.7805 18.375 37.6359 13.8961 36.5695 8.80195C35.9461 5.82421 33.5426 3.4207 30.5648 2.79726C25.7168 1.78827 21.4184 5.24179 21.0246 9.80273C20.9918 10.1801 21.3117 10.4918 21.6809 10.4918H23.0098C23.3543 10.4918 23.6168 10.2211 23.6578 9.88476C24.0105 6.88241 26.898 4.65116 30.1137 5.38945C32.0086 5.82421 33.5426 7.3664 33.9855 9.26132C34.773 12.6902 32.1727 15.75 28.875 15.75H0.65625C0.295312 15.75 0 16.0453 0 16.4062V17.7187C0 18.0797 0.295312 18.375 0.65625 18.375ZM12.7969 21H0.65625C0.295312 21 0 21.2953 0 21.6562V22.9687C0 23.3297 0.295312 23.625 0.65625 23.625H12.8871C15.627 23.625 18.0797 25.6266 18.3422 28.35C18.6457 31.4754 16.1848 34.125 13.1168 34.125C10.4262 34.125 8.20312 32.0906 7.89961 29.4902C7.85859 29.1457 7.59609 28.8832 7.25156 28.8832H5.93906C5.56172 28.8832 5.25 29.2031 5.28281 29.5723C5.63555 33.6 9.01523 36.7582 13.125 36.7582C17.5547 36.7582 21.1313 33.0996 21 28.6453C20.8687 24.3223 17.1035 21 12.7969 21ZM32.427 21H19.9992C20.8605 21.7547 21.5906 22.6324 22.1648 23.625H32.5172C35.9461 23.625 39.0059 26.1187 39.3422 29.5312C39.7277 33.4441 36.6434 36.75 32.8125 36.75C29.8184 36.75 27.2918 34.7402 26.5043 31.9922C26.4223 31.7051 26.1762 31.5 25.8727 31.5H24.552C24.1418 31.5 23.8137 31.8773 23.9039 32.2793C24.8473 36.3398 28.4648 39.375 32.8125 39.375C37.9805 39.375 42.1559 35.1094 42 29.9086C41.8441 24.8801 37.4555 21 32.427 21Z" fill="#3499D7"/>
</g>
<defs>
<clipPath id="clip0_134_437">
<rect width="42" height="42" fill="white"/>
</clipPath>
</defs>
</svg>
