<svg width="44" height="44" viewBox="0 0 44 44" fill="none" xmlns="http://www.w3.org/2000/svg">
<path d="M25 27C31.6274 27 37 21.6274 37 15C37 8.37258 31.6274 3 25 3C18.3726 3 13 8.37258 13 15C13 21.6274 18.3726 27 25 27Z" fill="#7DA6D9"/>
<path d="M33 29C37.9706 29 42 24.9706 42 20C42 15.0294 37.9706 11 33 11C28.0294 11 24 15.0294 24 20C24 24.9706 28.0294 29 33 29Z" fill="#7DA6D9"/>
<path d="M27 31C31.9706 31 36 26.9706 36 22C36 17.0294 31.9706 13 27 13C22.0294 13 18 17.0294 18 22C18 26.9706 22.0294 31 27 31Z" fill="#7DA6D9"/>
<path d="M16 30C20.9706 30 25 25.9706 25 21C25 16.0294 20.9706 12 16 12C11.0294 12 7 16.0294 7 21C7 25.9706 11.0294 30 16 30Z" fill="#7DA6D9"/>
<path d="M21 30C25.9706 30 30 25.9706 30 21C30 16.0294 25.9706 12 21 12C16.0294 12 12 16.0294 12 21C12 25.9706 16.0294 30 21 30Z" fill="#7DA6D9"/>
<path d="M9 29C13.4183 29 17 25.4183 17 21C17 16.5817 13.4183 13 9 13C4.58172 13 1 16.5817 1 21C1 25.4183 4.58172 29 9 29Z" fill="#7DA6D9"/>
<path d="M14 21C17.866 21 21 17.866 21 14C21 10.134 17.866 7 14 7C10.134 7 7 10.134 7 14C7 17.866 10.134 21 14 21Z" fill="#7DA6D9"/>
<path d="M17 21H25L22 29H26L18 41L19 33H15L17 21Z" fill="#FFA200"/>
<path d="M17.0341 21H24.9481L21.9661 29.017H25.9481L18.0251 40.931L19.0251 32.983H15.0341L17.0341 21Z" fill="#FFA301"/>
<path d="M17.069 21H24.897L21.931 29.034H25.897L18.049 40.862L19.051 32.966H15.069L17.069 21Z" fill="#FFA402"/>
<path d="M17.103 21H24.845L21.897 29.052H25.845L18.074 40.793L19.076 32.948H15.103L17.103 21Z" fill="#FFA503"/>
<path d="M17.1379 21H24.7929L21.8619 29.069H25.7929L18.0989 40.725L19.1009 32.931H15.1379L17.1379 21Z" fill="#FFA604"/>
<path d="M17.172 21H24.741L21.828 29.086H25.741L18.123 40.656L19.127 32.914H15.172L17.172 21Z" fill="#FFA704"/>
<path d="M17.207 21H24.69L21.793 29.103H25.69L18.148 40.587L19.152 32.897H15.207L17.207 21Z" fill="#FFA805"/>
<path d="M17.241 21H24.638L21.759 29.121H25.638L18.173 40.518L19.177 32.879H15.241L17.241 21Z" fill="#FFA906"/>
<path d="M17.276 21H24.586L21.724 29.138H25.586L18.197 40.449L19.202 32.862H15.276L17.276 21Z" fill="#FFAA07"/>
<path d="M17.3101 21H24.5341L21.6901 29.155H25.5341L18.2221 40.38L19.2281 32.845H15.3101L17.3101 21Z" fill="#FFAB08"/>
<path d="M17.345 21H24.483L21.655 29.172H25.483L18.246 40.311L19.253 32.828H15.345L17.345 21Z" fill="#FFAC09"/>
<path d="M17.379 21H24.431L21.621 29.19H25.431L18.271 40.242L19.278 32.81H15.379L17.379 21Z" fill="#FFAD0A"/>
<path d="M17.4139 21H24.3789L21.5859 29.207H25.3789L18.2959 40.174L19.3039 32.793H15.4139L17.4139 21Z" fill="#FFAE0B"/>
<path d="M17.448 21H24.328L21.552 29.224H25.328L18.32 40.105L19.329 32.776H15.448L17.448 21Z" fill="#FFAF0B"/>
<path d="M17.483 21H24.276L21.517 29.241H25.276L18.345 40.036L19.354 32.759H15.483L17.483 21Z" fill="#FFB00C"/>
<path d="M17.517 21H24.224L21.483 29.259H25.224L18.37 39.967L19.38 32.741H15.517L17.517 21Z" fill="#FFB10D"/>
<path d="M17.552 21H24.172L21.448 29.276H25.172L18.394 39.898L19.405 32.724H15.552L17.552 21Z" fill="#FFB20E"/>
<path d="M17.5861 21H24.1211L21.4141 29.293H25.1211L18.4191 39.829L19.4301 32.707H15.5861L17.5861 21Z" fill="#FFB30F"/>
<path d="M17.621 21H24.069L21.379 29.31H25.069L18.444 39.76L19.456 32.69H15.621L17.621 21Z" fill="#FFB410"/>
<path d="M17.655 21H24.017L21.345 29.328H25.017L18.468 39.691L19.481 32.672H15.655L17.655 21Z" fill="#FFB511"/>
<path d="M17.6899 21H23.9659L21.3099 29.345H24.9659L18.4929 39.623L19.5059 32.655H15.6899L17.6899 21Z" fill="#FFB612"/>
<path d="M17.724 21H23.914L21.276 29.362H24.914L18.518 39.554L19.532 32.638H15.724L17.724 21Z" fill="#FFB712"/>
<path d="M17.759 21H23.862L21.241 29.379H24.862L18.542 39.485L19.557 32.621H15.759L17.759 21Z" fill="#FFB813"/>
<path d="M17.793 21H23.81L21.207 29.397H24.81L18.567 39.416L19.582 32.603H15.793L17.793 21Z" fill="#FFB914"/>
<path d="M17.828 21H23.759L21.172 29.414H24.759L18.591 39.347L19.607 32.586H15.828L17.828 21Z" fill="#FFBA15"/>
<path d="M17.8621 21H23.7071L21.1381 29.431H24.7071L18.6161 39.278L19.6331 32.569H15.8621L17.8621 21Z" fill="#FFBB16"/>
<path d="M17.897 21H23.655L21.103 29.448H24.655L18.641 39.209L19.658 32.552H15.897L17.897 21Z" fill="#FFBC17"/>
<path d="M17.931 21H23.603L21.069 29.466H24.603L18.665 39.14L19.683 32.534H15.931L17.931 21Z" fill="#FFBD18"/>
<path d="M17.9659 21H23.5519L21.0339 29.483H24.5519L18.6899 39.072L19.7089 32.517H15.9659L17.9659 21Z" fill="#FFBE19"/>
<path d="M18 21H23.5L21 29.5H24.5L18.715 39.003L19.734 32.5H16L18 21Z" fill="#FFBF1A"/>
<path d="M18.0341 21H23.4481L20.9661 29.517H24.4481L18.7391 38.934L19.7591 32.483H16.0341L18.0341 21Z" fill="#FFBF1A"/>
<path d="M18.069 21H23.397L20.931 29.534H24.397L18.764 38.865L19.785 32.466H16.069L18.069 21Z" fill="#FFC01B"/>
<path d="M18.103 21H23.345L20.897 29.552H24.345L18.789 38.796L19.81 32.448H16.103L18.103 21Z" fill="#FFC11C"/>
<path d="M18.1379 21H23.2929L20.8619 29.569H24.2929L18.8129 38.727L19.8349 32.431H16.1379L18.1379 21Z" fill="#FFC21D"/>
<path d="M18.172 21H23.241L20.828 29.586H24.241L18.838 38.658L19.861 32.414H16.172L18.172 21Z" fill="#FFC31E"/>
<path d="M18.207 21H23.19L20.793 29.603H24.19L18.863 38.59L19.886 32.397H16.207L18.207 21Z" fill="#FFC41F"/>
<path d="M18.241 21H23.138L20.759 29.621H24.138L18.887 38.521L19.911 32.379H16.241L18.241 21Z" fill="#FFC520"/>
<path d="M18.276 21H23.086L20.724 29.638H24.086L18.912 38.452L19.936 32.362H16.276L18.276 21Z" fill="#FFC621"/>
<path d="M18.3101 21H23.0341L20.6901 29.655H24.0341L18.9371 38.383L19.9621 32.345H16.3101L18.3101 21Z" fill="#FFC721"/>
<path d="M18.345 21H22.983L20.655 29.672H23.983L18.961 38.314L19.987 32.328H16.345L18.345 21Z" fill="#FFC822"/>
<path d="M18.379 21H22.931L20.621 29.69H23.931L18.986 38.245L20.012 32.31H16.379L18.379 21Z" fill="#FFC923"/>
<path d="M18.4139 21H22.8789L20.5859 29.707H23.8789L19.0099 38.176L20.0379 32.293H16.4139L18.4139 21Z" fill="#FFCA24"/>
<path d="M18.448 21H22.828L20.552 29.724H23.828L19.035 38.107L20.063 32.276H16.448L18.448 21Z" fill="#FFCB25"/>
<path d="M18.483 21H22.776L20.517 29.741H23.776L19.06 38.039L20.088 32.259H16.483L18.483 21Z" fill="#FFCC26"/>
<path d="M18.517 21H22.724L20.483 29.759H23.724L19.084 37.97L20.114 32.241H16.517L18.517 21Z" fill="#FFCD27"/>
<path d="M18.552 21H22.672L20.448 29.776H23.672L19.109 37.901L20.139 32.224H16.552L18.552 21Z" fill="#FFCE28"/>
<path d="M18.5861 21H22.6211L20.4141 29.793H23.6211L19.1341 37.832L20.1641 32.207H16.5861L18.5861 21Z" fill="#FFCF28"/>
<path d="M18.621 21H22.569L20.379 29.81H23.569L19.158 37.763L20.19 32.19H16.621L18.621 21Z" fill="#FFD029"/>
<path d="M18.655 21H22.517L20.345 29.828H23.517L19.183 37.694L20.215 32.172H16.655L18.655 21Z" fill="#FFD12A"/>
<path d="M18.6899 21H22.4659L20.3099 29.845H23.4659L19.2079 37.625L20.2399 32.155H16.6899L18.6899 21Z" fill="#FFD22B"/>
<path d="M18.724 21H22.414L20.276 29.862H23.414L19.232 37.556L20.266 32.138H16.724L18.724 21Z" fill="#FFD32C"/>
<path d="M18.759 21H22.362L20.241 29.879H23.362L19.257 37.488L20.291 32.121H16.759L18.759 21Z" fill="#FFD42D"/>
<path d="M18.793 21H22.31L20.207 29.897H23.31L19.282 37.419L20.316 32.103H16.793L18.793 21Z" fill="#FFD52E"/>
<path d="M18.828 21H22.259L20.172 29.914H23.259L19.306 37.35L20.341 32.086H16.828L18.828 21Z" fill="#FFD62F"/>
<path d="M18.8621 21H22.2071L20.1381 29.931H23.2071L19.3311 37.281L20.3671 32.069H16.8621L18.8621 21Z" fill="#FFD72F"/>
<path d="M18.897 21H22.155L20.103 29.948H23.155L19.355 37.212L20.392 32.052H16.897L18.897 21Z" fill="#FFD830"/>
<path d="M18.931 21H22.103L20.069 29.966H23.103L19.38 37.143L20.417 32.034H16.931L18.931 21Z" fill="#FFD931"/>
<path d="M18.9659 21H22.0519L20.0339 29.983H23.0519L19.4049 37.074L20.4429 32.017H16.9659L18.9659 21Z" fill="#FFDA32"/>
<path d="M19 21H22L20 30H23L19.429 37.005L20.468 32H17L19 21Z" fill="#FFDB33"/>
<path d="M25 27C31.6274 27 37 21.6274 37 15C37 8.37258 31.6274 3 25 3C18.3726 3 13 8.37258 13 15C13 21.6274 18.3726 27 25 27Z" fill="url(#paint0_radial_465_1128)"/>
<path d="M33 29C37.9706 29 42 24.9706 42 20C42 15.0294 37.9706 11 33 11C28.0294 11 24 15.0294 24 20C24 24.9706 28.0294 29 33 29Z" fill="url(#paint1_radial_465_1128)"/>
<path d="M27 29C31.9706 29 36 24.9706 36 20C36 15.0294 31.9706 11 27 11C22.0294 11 18 15.0294 18 20C18 24.9706 22.0294 29 27 29Z" fill="url(#paint2_radial_465_1128)"/>
<path d="M16 29C20.9706 29 25 24.9706 25 20C25 15.0294 20.9706 11 16 11C11.0294 11 7 15.0294 7 20C7 24.9706 11.0294 29 16 29Z" fill="url(#paint3_radial_465_1128)"/>
<path d="M21 28C25.9706 28 30 23.9706 30 19C30 14.0294 25.9706 10 21 10C16.0294 10 12 14.0294 12 19C12 23.9706 16.0294 28 21 28Z" fill="url(#paint4_radial_465_1128)"/>
<path d="M9 29C13.4183 29 17 25.4183 17 21C17 16.5817 13.4183 13 9 13C4.58172 13 1 16.5817 1 21C1 25.4183 4.58172 29 9 29Z" fill="url(#paint5_radial_465_1128)"/>
<path d="M14 21C17.866 21 21 17.866 21 14C21 10.134 17.866 7 14 7C10.134 7 7 10.134 7 14C7 17.866 10.134 21 14 21Z" fill="url(#paint6_radial_465_1128)"/>
<path d="M30 38.5C30 39.881 28.881 41 27.5 41C26.119 41 25 39.881 25 38.5C25 36.5 27 33.5 27.5 33.5C28 33.5 30 36.5 30 38.5Z" fill="url(#paint7_radial_465_1128)"/>
<path d="M12 35.5C12 36.605 11.105 37.5 10 37.5C8.895 37.5 8 36.605 8 35.5C8 33.9 9.6 31.5 10 31.5C10.4 31.5 12 33.9 12 35.5Z" fill="url(#paint8_radial_465_1128)"/>
<path d="M38 34C38 35.105 37.105 36 36 36C34.895 36 34 35.105 34 34C34 32.4 35.6 30 36 30C36.4 30 38 32.4 38 34Z" fill="url(#paint9_radial_465_1128)"/>
<defs>
<radialGradient id="paint0_radial_465_1128" cx="0" cy="0" r="1" gradientUnits="userSpaceOnUse" gradientTransform="translate(25 15) scale(12)">
<stop stop-color="#E0ECFF"/>
<stop offset="1" stop-color="#E0ECFF" stop-opacity="0"/>
</radialGradient>
<radialGradient id="paint1_radial_465_1128" cx="0" cy="0" r="1" gradientUnits="userSpaceOnUse" gradientTransform="translate(33 20) scale(9)">
<stop stop-color="#E0ECFF"/>
<stop offset="1" stop-color="#E0ECFF" stop-opacity="0"/>
</radialGradient>
<radialGradient id="paint2_radial_465_1128" cx="0" cy="0" r="1" gradientUnits="userSpaceOnUse" gradientTransform="translate(27 20) scale(9)">
<stop stop-color="#E0ECFF"/>
<stop offset="1" stop-color="#E0ECFF" stop-opacity="0"/>
</radialGradient>
<radialGradient id="paint3_radial_465_1128" cx="0" cy="0" r="1" gradientUnits="userSpaceOnUse" gradientTransform="translate(16 20) scale(9)">
<stop stop-color="#E0ECFF"/>
<stop offset="1" stop-color="#E0ECFF" stop-opacity="0"/>
</radialGradient>
<radialGradient id="paint4_radial_465_1128" cx="0" cy="0" r="1" gradientUnits="userSpaceOnUse" gradientTransform="translate(21 19) scale(9)">
<stop stop-color="#E0ECFF"/>
<stop offset="1" stop-color="#E0ECFF" stop-opacity="0"/>
</radialGradient>
<radialGradient id="paint5_radial_465_1128" cx="0" cy="0" r="1" gradientUnits="userSpaceOnUse" gradientTransform="translate(9 21) scale(8)">
<stop stop-color="#E0ECFF"/>
<stop offset="1" stop-color="#E0ECFF" stop-opacity="0"/>
</radialGradient>
<radialGradient id="paint6_radial_465_1128" cx="0" cy="0" r="1" gradientUnits="userSpaceOnUse" gradientTransform="translate(14 14) scale(7)">
<stop stop-color="#E0ECFF"/>
<stop offset="1" stop-color="#E0ECFF" stop-opacity="0"/>
</radialGradient>
<radialGradient id="paint7_radial_465_1128" cx="0" cy="0" r="1" gradientUnits="userSpaceOnUse" gradientTransform="translate(27.5474 37.918) rotate(-90) scale(3.356 2.77373)">
<stop stop-color="#B3F1FF"/>
<stop offset="0.166" stop-color="#9EE4FC"/>
<stop offset="0.509" stop-color="#68C2F3"/>
<stop offset="0.996" stop-color="#118CE6"/>
<stop offset="1" stop-color="#108CE6"/>
</radialGradient>
<radialGradient id="paint8_radial_465_1128" cx="0" cy="0" r="1" gradientUnits="userSpaceOnUse" gradientTransform="translate(10.0386 35.033) rotate(-90) scale(2.685 2.21915)">
<stop stop-color="#B3F1FF"/>
<stop offset="0.166" stop-color="#9EE4FC"/>
<stop offset="0.509" stop-color="#68C2F3"/>
<stop offset="0.996" stop-color="#118CE6"/>
<stop offset="1" stop-color="#108CE6"/>
</radialGradient>
<radialGradient id="paint9_radial_465_1128" cx="0" cy="0" r="1" gradientUnits="userSpaceOnUse" gradientTransform="translate(36.0389 33.533) rotate(-90) scale(2.685 2.21915)">
<stop stop-color="#B3F1FF"/>
<stop offset="0.166" stop-color="#9EE4FC"/>
<stop offset="0.509" stop-color="#68C2F3"/>
<stop offset="0.996" stop-color="#118CE6"/>
<stop offset="1" stop-color="#108CE6"/>
</radialGradient>
</defs>
</svg>
