<svg width="44" height="44" viewBox="0 0 44 44" fill="none" xmlns="http://www.w3.org/2000/svg">
<path d="M26 31C32.6274 31 38 25.6274 38 19C38 12.3726 32.6274 7 26 7C19.3726 7 14 12.3726 14 19C14 25.6274 19.3726 31 26 31Z" fill="#9FD5ED"/>
<path d="M35 36C39.9706 36 44 31.9706 44 27C44 22.0294 39.9706 18 35 18C30.0294 18 26 22.0294 26 27C26 31.9706 30.0294 36 35 36Z" fill="#9FD5ED"/>
<path d="M28 37C32.9706 37 37 32.9706 37 28C37 23.0294 32.9706 19 28 19C23.0294 19 19 23.0294 19 28C19 32.9706 23.0294 37 28 37Z" fill="#9FD5ED"/>
<path d="M16 37C20.9706 37 25 32.9706 25 28C25 23.0294 20.9706 19 16 19C11.0294 19 7 23.0294 7 28C7 32.9706 11.0294 37 16 37Z" fill="#9FD5ED"/>
<path d="M22 36C26.9706 36 31 31.9706 31 27C31 22.0294 26.9706 18 22 18C17.0294 18 13 22.0294 13 27C13 31.9706 17.0294 36 22 36Z" fill="#9FD5ED"/>
<path d="M9 36C13.9706 36 18 31.9706 18 27C18 22.0294 13.9706 18 9 18C4.02944 18 0 22.0294 0 27C0 31.9706 4.02944 36 9 36Z" fill="#9FD5ED"/>
<path d="M13 27C16.866 27 20 23.866 20 20C20 16.134 16.866 13 13 13C9.13401 13 6 16.134 6 20C6 23.866 9.13401 27 13 27Z" fill="#9FD5ED"/>
<path d="M26 31C32.6274 31 38 25.6274 38 19C38 12.3726 32.6274 7 26 7C19.3726 7 14 12.3726 14 19C14 25.6274 19.3726 31 26 31Z" fill="url(#paint0_radial_465_1128)"/>
<path d="M35 36C39.9706 36 44 31.9706 44 27C44 22.0294 39.9706 18 35 18C30.0294 18 26 22.0294 26 27C26 31.9706 30.0294 36 35 36Z" fill="url(#paint1_radial_465_1128)"/>
<path d="M28 37C32.9706 37 37 32.9706 37 28C37 23.0294 32.9706 19 28 19C23.0294 19 19 23.0294 19 28C19 32.9706 23.0294 37 28 37Z" fill="url(#paint2_radial_465_1128)"/>
<path d="M16 37C20.9706 37 25 32.9706 25 28C25 23.0294 20.9706 19 16 19C11.0294 19 7 23.0294 7 28C7 32.9706 11.0294 37 16 37Z" fill="url(#paint3_radial_465_1128)"/>
<path d="M22 36C26.9706 36 31 31.9706 31 27C31 22.0294 26.9706 18 22 18C17.0294 18 13 22.0294 13 27C13 31.9706 17.0294 36 22 36Z" fill="url(#paint4_radial_465_1128)"/>
<path d="M9 36C13.9706 36 18 31.9706 18 27C18 22.0294 13.9706 18 9 18C4.02944 18 0 22.0294 0 27C0 31.9706 4.02944 36 9 36Z" fill="url(#paint5_radial_465_1128)"/>
<path d="M13 27C16.866 27 20 23.866 20 20C20 16.134 16.866 13 13 13C9.13401 13 6 16.134 6 20C6 23.866 9.13401 27 13 27Z" fill="url(#paint6_radial_465_1128)"/>
<defs>
<radialGradient id="paint0_radial_465_1128" cx="0" cy="0" r="1" gradientUnits="userSpaceOnUse" gradientTransform="translate(26 19) scale(12)">
<stop stop-color="#E3F4FF"/>
<stop offset="1" stop-color="#E3F4FF" stop-opacity="0"/>
</radialGradient>
<radialGradient id="paint1_radial_465_1128" cx="0" cy="0" r="1" gradientUnits="userSpaceOnUse" gradientTransform="translate(35 27) scale(9)">
<stop stop-color="#E3F4FF"/>
<stop offset="1" stop-color="#E3F4FF" stop-opacity="0"/>
</radialGradient>
<radialGradient id="paint2_radial_465_1128" cx="0" cy="0" r="1" gradientUnits="userSpaceOnUse" gradientTransform="translate(28 28) scale(9)">
<stop stop-color="#E3F4FF"/>
<stop offset="1" stop-color="#E3F4FF" stop-opacity="0"/>
</radialGradient>
<radialGradient id="paint3_radial_465_1128" cx="0" cy="0" r="1" gradientUnits="userSpaceOnUse" gradientTransform="translate(16 28) scale(9)">
<stop stop-color="#E3F4FF"/>
<stop offset="1" stop-color="#E3F4FF" stop-opacity="0"/>
</radialGradient>
<radialGradient id="paint4_radial_465_1128" cx="0" cy="0" r="1" gradientUnits="userSpaceOnUse" gradientTransform="translate(22 27) scale(9)">
<stop stop-color="#E3F4FF"/>
<stop offset="1" stop-color="#E3F4FF" stop-opacity="0"/>
</radialGradient>
<radialGradient id="paint5_radial_465_1128" cx="0" cy="0" r="1" gradientUnits="userSpaceOnUse" gradientTransform="translate(9 27) scale(9)">
<stop stop-color="#E3F4FF"/>
<stop offset="1" stop-color="#E3F4FF" stop-opacity="0"/>
</radialGradient>
<radialGradient id="paint6_radial_465_1128" cx="0" cy="0" r="1" gradientUnits="userSpaceOnUse" gradientTransform="translate(13 20) scale(7)">
<stop stop-color="#E3F4FF"/>
<stop offset="1" stop-color="#E3F4FF" stop-opacity="0"/>
</radialGradient>
</defs>
</svg>
