<svg width="44" height="44" viewBox="0 0 44 44" fill="none" xmlns="http://www.w3.org/2000/svg">
<path d="M40.6866 17.8835C41.3186 21.7225 41.0416 25.8375 39.4246 29.5755C37.8246 33.3115 34.8446 36.4905 31.1596 38.4615C27.4706 40.4185 23.0886 41.1725 18.8396 40.4565C14.5866 39.7545 10.5276 37.4725 7.65263 34.1035C4.75963 30.7545 3.01863 26.3334 3.00263 21.7854C2.96263 19.5145 3.37963 17.2195 4.21863 15.0785C5.04963 12.9365 6.25863 10.9365 7.86863 9.26145C14.3496 2.43445 25.9336 2.16945 32.2206 8.94545C35.2156 12.2255 36.5956 16.8604 35.8376 21.1884C35.4736 23.3474 34.5896 25.4325 33.2396 27.1615C31.8986 28.8995 30.1316 30.2565 28.1286 31.1385C26.1186 31.9865 23.8666 32.3085 21.7126 31.9435C19.5536 31.6215 17.5356 30.5995 15.9336 29.1965C14.3206 27.8045 13.0666 25.8415 12.6536 23.7175C12.2016 21.6035 12.4656 19.3515 13.4226 17.4345C13.8966 16.4785 14.5086 15.5854 15.2716 14.8444C16.0296 14.0804 16.9556 13.4675 17.9576 13.0745C19.9676 12.2805 22.2806 12.3925 24.1846 13.3375C25.1406 13.8085 25.9786 14.4675 26.6676 15.2875C27.3466 16.1195 27.7926 17.1325 27.9666 18.1795C28.3246 20.2875 27.4876 22.5105 25.8596 23.8525C24.2126 25.2315 21.6726 25.3075 19.9706 24.0575C19.1176 23.4695 18.4456 22.5375 18.2596 21.4955C18.0536 20.4605 18.3016 19.3545 18.9126 18.5095C19.4946 17.6485 20.5356 17.0725 21.5866 17.1075C22.6316 17.1305 23.6556 17.6915 24.1586 18.6245C24.6576 19.5565 24.4616 20.7805 23.7146 21.5015C22.9806 22.2745 21.6366 22.2605 20.9286 21.4915L21.0616 21.3584C21.7216 22.0344 22.9096 22.0004 23.5226 21.3134C24.1696 20.6524 24.3006 19.5755 23.8506 18.7895C23.4046 18.0065 22.4776 17.5265 21.5836 17.5375C20.6706 17.5415 19.8246 18.0355 19.3316 18.8025C18.8226 19.5495 18.6386 20.5045 18.8386 21.3775C19.0276 22.2605 19.5936 23.0064 20.3516 23.5044C21.8456 24.5384 23.9946 24.3935 25.3236 23.2125C26.6836 22.0325 27.2996 20.0965 26.9336 18.3675C26.7536 17.5045 26.3546 16.6915 25.7766 16.0375C25.1886 15.3915 24.4446 14.8475 23.6396 14.4935C22.0256 13.7705 20.1196 13.7635 18.5276 14.4675C16.9366 15.1525 15.6996 16.5665 14.9896 18.1685C14.2656 19.7675 14.1326 21.6055 14.5616 23.2785C14.9706 24.9764 15.9796 26.4305 17.3466 27.5275C18.7106 28.6235 20.3466 29.3645 22.0526 29.5455C23.7536 29.7665 25.4946 29.4375 27.0386 28.7155C28.5656 27.9655 29.9416 26.8295 30.9156 25.4335C31.9046 24.0475 32.5156 22.4085 32.7266 20.7215C33.1706 17.3325 31.9336 13.8115 29.5606 11.4375C27.2756 9.08445 23.6916 8.22445 20.4106 8.67545C17.0966 9.10145 14.1036 10.7585 12.0276 13.1115C10.9836 14.2875 10.1346 15.6715 9.54363 17.1485C8.95963 18.6335 8.65763 20.2285 8.57663 21.8485C8.46763 25.0875 9.37363 28.4585 11.3196 31.2145C13.2246 34.0075 16.1966 36.0504 19.5746 36.9104C22.9496 37.7874 26.6966 37.4845 30.0246 36.0865C33.3646 34.7135 36.3096 32.2075 38.1276 28.9305C40.0106 25.6795 40.7486 21.7765 40.6466 17.8875L40.6866 17.8835Z" fill="url(#paint0_radial_465_1128)"/>
<defs>
<radialGradient id="paint0_radial_465_1128" cx="0" cy="0" r="1" gradientUnits="userSpaceOnUse" gradientTransform="translate(22.0006 21.7065) scale(20.142)">
<stop offset="0.758" stop-color="#61ADFF"/>
<stop offset="0.807" stop-color="#69B1FF" stop-opacity="0.798"/>
<stop offset="0.882" stop-color="#7FBAFF" stop-opacity="0.487"/>
<stop offset="0.974" stop-color="#A2CAFF" stop-opacity="0.107"/>
<stop offset="1" stop-color="#ADCFFF" stop-opacity="0"/>
</radialGradient>
</defs>
</svg>
