<svg width="44" height="44" viewBox="0 0 44 44" fill="none" xmlns="http://www.w3.org/2000/svg">
<path d="M22 1L22.906 2.875C23.935 5.005 26.717 5.558 28.483 3.984L30.037 2.599L30.156 4.678C30.292 7.04 32.65 8.615 34.884 7.837L36.85 7.152L36.165 9.118C35.386 11.352 36.962 13.71 39.324 13.846L41.403 13.965L40.018 15.519C38.444 17.285 38.997 20.066 41.127 21.096L43 22L41.125 22.906C38.995 23.935 38.442 26.717 40.016 28.483L41.401 30.037L39.322 30.156C36.96 30.292 35.385 32.65 36.163 34.884L36.848 36.85L34.882 36.165C32.648 35.386 30.29 36.962 30.154 39.324L30.035 41.403L28.481 40.018C26.715 38.444 23.934 38.997 22.904 41.127L22 43L21.094 41.125C20.065 38.995 17.283 38.442 15.517 40.016L13.963 41.401L13.844 39.322C13.708 36.96 11.35 35.385 9.116 36.163L7.15 36.848L7.835 34.882C8.614 32.648 7.038 30.29 4.676 30.154L2.597 30.035L3.982 28.481C5.556 26.715 5.003 23.934 2.873 22.904L1 22L2.875 21.094C5.005 20.065 5.558 17.283 3.984 15.517L2.599 13.963L4.678 13.844C7.04 13.708 8.615 11.35 7.837 9.116L7.151 7.151L9.117 7.836C11.351 8.615 13.709 7.039 13.845 4.677L13.964 2.598L15.518 3.983C17.284 5.557 20.065 5.004 21.095 2.874L22 1Z" fill="url(#paint0_radial_465_1128)"/>
<defs>
<radialGradient id="paint0_radial_465_1128" cx="0" cy="0" r="1" gradientUnits="userSpaceOnUse" gradientTransform="translate(22 22) scale(21)">
<stop stop-color="#FFE16E"/>
<stop offset="0.583" stop-color="#FCBF22"/>
<stop offset="0.654" stop-color="#FEA20F"/>
<stop offset="0.718" stop-color="#FF8C00"/>
<stop offset="0.797" stop-color="#FFA300"/>
<stop offset="0.928" stop-color="#FFC400"/>
<stop offset="1" stop-color="#FFD000"/>
</radialGradient>
</defs>
</svg>
