<svg width="44" height="44" viewBox="0 0 44 44" fill="none" xmlns="http://www.w3.org/2000/svg">
<path d="M15.2981 28.2793C15.2867 27.8282 15.6701 27.4539 16.1544 27.4433C16.6387 27.4327 17.0406 27.7898 17.052 28.2409C17.1155 30.5993 17.5615 32.3423 18.5572 33.53C19.5262 34.6856 21.0813 35.3626 23.3915 35.6267C23.8739 35.6815 24.2172 36.0902 24.1584 36.5396C24.0995 36.9889 23.6606 37.3087 23.1782 37.2539C20.3812 36.9342 18.4497 36.0565 17.1747 34.5358C15.9266 33.0471 15.3711 30.9918 15.2981 28.2793Z" fill="#3499D7"/>
<path fill-rule="evenodd" clip-rule="evenodd" d="M22.7583 8.6061C21.9838 10.4841 21.0722 12.2718 20.048 14.0356C19.0238 15.7994 17.8869 17.5394 16.6617 19.3218C16.0532 20.207 15.4211 21.1013 14.8128 22.0081C14.2044 22.9149 13.6199 23.8343 13.1065 24.7698C12.174 26.4691 11.7294 28.2729 11.7466 30.0802C11.7639 31.8874 12.2431 33.6981 13.1584 35.411C13.9777 36.9443 15.1671 38.1816 16.7569 39.0354C18.3468 39.8894 20.3371 40.3599 22.7584 40.3599C25.3986 40.3599 27.5264 39.8004 29.1813 38.7945C30.8362 37.7886 32.0182 36.3362 32.7667 34.5506C34.8365 29.6132 33.6053 26.3329 30.704 22.0081C30.0956 21.1012 29.4635 20.207 28.855 19.3218C27.6298 17.5394 26.4929 15.7994 25.4687 14.0356C24.4445 12.2718 23.5329 10.4841 22.7583 8.6061ZM22.7583 3C23.5562 6.25001 24.753 9.09381 26.0993 11.6328C27.4456 14.1719 28.9416 16.4063 30.3379 18.4375C34.263 24.1479 37.2415 27.987 34.4709 34.9506C33.6731 36.9557 32.3834 38.7207 30.4739 39.9831C28.5645 41.2455 26.0353 42.0053 22.7583 42C19.9449 41.9954 17.6882 41.4211 15.9023 40.4465C14.1164 39.472 12.8013 38.0972 11.871 36.4919C10.7006 34.4721 10.0643 32.323 10.0046 30.1706C9.94494 28.0182 10.4617 25.8623 11.5973 23.8288C12.3147 22.5444 13.2232 21.2022 14.2193 19.7608C15.2155 18.3195 16.2994 16.779 17.3675 15.0983C18.4355 13.4175 19.4878 11.5965 20.4208 9.59381C21.3538 7.59117 22.1674 5.40696 22.7583 3Z" fill="#3499D7"/>
</svg>
