<svg width="44" height="44" viewBox="0 0 44 44" fill="none" xmlns="http://www.w3.org/2000/svg">
<path d="M42.9421 21.8367C40.8056 12.7078 32.391 7.04492 23.1671 6.59219V4.1875C23.1671 3.53437 22.6421 3 22.0004 3C21.3587 3 20.8337 3.53437 20.8337 4.1875V6.59219C11.6462 7.0375 3.25351 12.641 1.05872 21.8293C0.621223 23.6031 2.72122 25.1023 4.27435 23.6922C7.88372 20.2707 10.8296 21.6363 13.4181 25.748C14.2493 27.0691 15.9556 27.0023 16.7431 25.748C17.8514 24.0039 19.0181 22.4082 20.841 21.9258V36.2574C20.841 37.5711 19.7983 38.6324 18.5077 38.6324C17.516 38.6324 16.6337 37.9941 16.3056 37.0516C16.0868 36.4355 15.4233 36.109 14.8181 36.3242C14.2129 36.5395 13.8921 37.2223 14.1108 37.8383C14.7671 39.7309 16.5389 41.0074 18.515 41.0074C21.0889 41.0074 23.1816 38.8773 23.1816 36.2574V21.9406C25.3764 22.5566 26.4337 24.4121 27.2796 25.7406C28.0671 27.0023 29.7806 27.0543 30.6046 25.7406C33.2441 21.5918 36.19 20.3227 39.7483 23.6848C41.2723 25.0875 43.3723 23.6105 42.9421 21.8367ZM28.9493 23.9668C27.1775 21.0203 24.7275 19.4023 22.0004 19.4023C18.7556 19.4023 16.7796 21.4062 15.0952 23.9668C12.0618 18.9348 7.25664 18.2148 3.71289 21.05C6.25768 13.2941 14.0379 8.9375 22.0004 8.9375C29.9702 8.9375 37.8233 13.3387 40.3171 21.0871C36.066 17.8289 31.9973 19.4617 28.9493 23.9668Z" fill="#3499D7"/>
</svg>
