<svg width="44" height="44" viewBox="0 0 44 44" fill="none" xmlns="http://www.w3.org/2000/svg">
<path d="M1.5125 29.75H3.05C5.52409 29.75 7.70862 28.9643 9.2 27.6978C10.6914 28.965 12.8759 29.75 15.35 29.75C15.507 29.75 15.6505 29.7204 15.8048 29.7139C15.3346 29.0919 14.9727 28.3939 14.7222 27.6372C13.3737 27.5186 12.3275 27.0636 11.7574 26.5338C11.1872 26.0046 10.4979 25.625 9.72211 25.625H8.67789C7.90209 25.625 7.21278 26.0046 6.64262 26.5338C5.98406 27.1448 4.71819 27.6875 3.05 27.6875H1.5125C1.22934 27.6875 1 27.9182 1 28.2031V29.2344C1 29.5193 1.22934 29.75 1.5125 29.75ZM41.4875 27.6875H39.95C38.2818 27.6875 37.0159 27.1448 36.3567 26.5338C35.7866 26.0046 35.0973 25.625 34.3215 25.625H33.2772C32.5015 25.625 31.8121 26.0046 31.242 26.5338C30.6718 27.0629 29.6257 27.5186 28.2772 27.6372C28.0267 28.3946 27.6641 29.0919 27.1945 29.7139C27.3489 29.7204 27.4924 29.75 27.6494 29.75C30.1235 29.75 32.308 28.9643 33.7994 27.6978C35.2907 28.965 37.4753 29.75 39.9494 29.75H41.4869C41.77 29.75 41.9994 29.5193 41.9994 29.2344V28.2031C42 27.9182 41.7707 27.6875 41.4875 27.6875ZM21.5 30.7825C24.3264 30.7825 26.625 28.4693 26.625 25.625C26.625 23.1352 24.862 21.0521 22.525 20.5732V15.3125H27.1375C27.4207 15.3125 27.65 15.0818 27.65 14.7969V13.7656C27.65 13.4807 27.4207 13.25 27.1375 13.25H22.525V11.1875H27.1375C27.4207 11.1875 27.65 10.9568 27.65 10.6719V9.64062C27.65 9.35574 27.4207 9.125 27.1375 9.125H22.525V7.0625H27.1375C27.4207 7.0625 27.65 6.83176 27.65 6.54688V5.51562C27.65 5.23074 27.4207 5 27.1375 5H22.0125C21.1669 5 20.475 5.69609 20.475 6.54688V20.5732C18.138 21.0521 16.375 23.1352 16.375 25.625C16.375 28.4687 18.6736 30.7825 21.5 30.7825ZM21.5 22.5312C23.1957 22.5312 24.575 23.9189 24.575 25.625C24.575 27.3311 23.1957 28.72 21.5 28.72C19.8043 28.72 18.425 27.3311 18.425 25.625C18.425 23.9189 19.8043 22.5312 21.5 22.5312ZM41.4875 35.9375H39.95C38.2818 35.9375 37.0159 35.3948 36.3567 34.7838C35.7866 34.2546 35.0973 33.875 34.3215 33.875H33.2772C32.5015 33.875 31.8121 34.2546 31.242 34.7838C30.5841 35.3948 29.3182 35.9375 27.65 35.9375C25.9818 35.9375 24.7159 35.3948 24.0567 34.7838C23.4866 34.2546 22.7973 33.875 22.0215 33.875H20.9772C20.2015 33.875 19.5121 34.2546 18.942 34.7838C18.2841 35.3948 17.0182 35.9375 15.35 35.9375C13.6818 35.9375 12.4159 35.3948 11.7567 34.7838C11.1866 34.2546 10.4973 33.875 9.72147 33.875H8.67725C7.90145 33.875 7.21214 34.2546 6.64198 34.7838C5.98406 35.3948 4.71819 35.9375 3.05 35.9375H1.5125C1.22934 35.9375 1 36.1682 1 36.4531V37.4844C1 37.7693 1.22934 38 1.5125 38H3.05C5.52409 38 7.70862 37.2143 9.2 35.9478C10.6914 37.215 12.8759 38 15.35 38C17.8241 38 20.0086 37.2143 21.5 35.9478C22.9914 37.215 25.1759 38 27.65 38C30.1241 38 32.3086 37.2143 33.8 35.9478C35.2914 37.215 37.4759 38 39.95 38H41.4875C41.7707 38 42 37.7693 42 37.4844V36.4531C42 36.1682 41.7707 35.9375 41.4875 35.9375Z" fill="#3499D7"/>
</svg>
