<svg width="44" height="44" viewBox="0 0 44 44" fill="none" xmlns="http://www.w3.org/2000/svg">
<path d="M38.7992 31.031C36.708 31.031 34.6866 30.4734 33.0834 29.4278C31.4802 30.4734 29.5285 31.031 27.4374 31.031C25.3463 31.031 23.3248 30.4734 21.7216 29.4278C20.1184 30.4734 18.097 31.031 16.0059 31.031C13.9148 31.031 11.8934 30.4734 10.2902 29.4278C8.68698 30.4734 6.66556 31.031 4.57443 31.031C3.18035 31.031 1.71657 30.7522 0.461892 30.2643C0.113371 30.1249 -0.0957412 29.7066 0.043667 29.3581C0.183075 29.0096 0.6013 28.8005 0.94982 28.9399C2.06509 29.3581 3.25006 29.6369 4.50473 29.6369C6.45645 29.6369 8.33846 29.0793 9.80224 28.0337C10.0811 27.8246 10.3599 27.8246 10.6387 28.0337C12.0328 29.0793 13.9148 29.6369 15.9362 29.6369C17.8879 29.6369 19.7699 29.0793 21.2337 28.0337C21.5125 27.8246 21.7913 27.8246 22.0702 28.0337C23.4642 29.0793 25.3463 29.6369 27.3677 29.6369C29.3891 29.6369 31.2014 29.0793 32.6652 28.0337C32.944 27.8246 33.2228 27.8246 33.5016 28.0337C34.8957 29.0793 36.7777 29.6369 38.7992 29.6369C40.0538 29.6369 41.3085 29.4278 42.3541 28.9399C42.7026 28.8005 43.1208 28.9399 43.2602 29.3581C43.3996 29.7066 43.2602 30.1249 42.842 30.2643C41.657 30.7522 40.1932 31.031 38.7992 31.031Z" fill="#3499D7"/>
<path d="M38.7992 35.2133C36.708 35.2133 34.6866 34.6556 33.0834 33.6101C31.4802 34.6556 29.5285 35.2133 27.4374 35.2133C25.3463 35.2133 23.3248 34.6556 21.7216 33.6101C20.1184 34.6556 18.097 35.2133 16.0059 35.2133C13.9148 35.2133 11.8934 34.6556 10.2902 33.6101C8.68698 34.6556 6.66556 35.2133 4.57443 35.2133C3.18035 35.2133 1.71657 34.9344 0.461892 34.4465C0.113371 34.3071 -0.0957412 33.8889 0.043667 33.5404C0.183075 33.1918 0.6013 32.9827 0.94982 33.1221C2.06509 33.5404 3.25006 33.8192 4.50473 33.8192C6.45645 33.8192 8.33846 33.2615 9.80224 32.216C10.0811 32.0069 10.3599 32.0069 10.6387 32.216C12.0328 33.2615 13.9148 33.8192 15.9362 33.8192C17.8879 33.8192 19.7699 33.2615 21.2337 32.216C21.5125 32.0069 21.7913 32.0069 22.0702 32.216C23.4642 33.2615 25.3463 33.8192 27.3677 33.8192C29.3891 33.8192 31.2014 33.2615 32.6652 32.216C32.944 32.0069 33.2228 32.0069 33.5016 32.216C34.8957 33.2615 36.7777 33.8192 38.7992 33.8192C40.0538 33.8192 41.3085 33.6101 42.3541 33.1221C42.7026 32.9827 43.1208 33.1221 43.2602 33.5404C43.3996 33.9586 43.2602 34.3071 42.842 34.4465C41.657 34.9344 40.1932 35.2133 38.7992 35.2133Z" fill="#3499D7"/>
<path d="M39.3567 22.8756C38.59 22.8756 37.8233 22.7362 37.0565 22.318L36.9868 22.2483C35.8715 21.4815 35.3836 20.2966 35.7321 19.0419C36.011 17.9963 36.7777 17.1599 37.7536 16.6719C37.2656 16.3234 36.708 16.0446 36.0807 16.0446C34.6866 15.9052 33.0137 16.6719 31.4802 18.1357C29.1799 20.2966 25.3462 22.1089 22.6975 21.4118C21.3731 21.0633 20.4669 20.0874 20.1184 18.6934C19.7002 17.0902 20.1184 15.6264 21.2337 14.7202C22.3489 13.8141 23.9521 13.6747 25.625 14.2323C25.4159 12.6291 24.231 11.1653 22.4186 10.2592C20.1184 9.0742 16.4241 8.93479 13.148 12.0018C11.3357 13.8838 10.3598 15.4173 9.52339 16.8114C7.85049 19.5298 6.80493 21.2724 1.01949 21.9695C0.601261 22.0392 0.322444 21.7603 0.25274 21.3421C0.183036 20.9239 0.461852 20.6451 0.880077 20.5754C5.96848 19.948 6.80493 18.6237 8.33842 16.0446C9.17487 14.6505 10.2204 12.9776 12.1721 10.9562C16.0059 7.33159 20.2578 7.54071 23.046 8.93479C25.7644 10.3289 27.2979 12.8382 27.0191 15.3476C27.0191 15.5567 26.8797 15.7658 26.6706 15.9052C26.4615 16.0446 26.2524 15.9749 26.0433 15.9052C24.5795 15.0688 23.1157 15.0688 22.2095 15.7658C21.5125 16.3234 21.3034 17.2296 21.5822 18.2751C21.861 19.1813 22.3489 19.8086 23.1854 20.0177C25.2765 20.5754 28.6223 18.9722 30.6437 17.0902C32.5257 15.3476 34.5472 14.4414 36.3595 14.5808C37.6839 14.7202 38.8688 15.3476 39.775 16.5325C39.9144 16.7417 39.9841 17.0205 39.8447 17.2296C39.775 17.4387 39.4962 17.6478 39.287 17.6478C38.3809 17.7175 37.4747 18.4145 37.2656 19.3207C37.1262 19.7389 37.1959 20.436 37.9627 20.9936C39.287 21.6209 40.472 21.4815 42.6328 20.5754C42.9814 20.436 43.3996 20.5754 43.539 20.9239C43.6784 21.2724 43.539 21.6906 43.1905 21.8301C41.5873 22.5271 40.472 22.8756 39.3567 22.8756Z" fill="#3499D7"/>
<path d="M38.7992 26.8488C36.708 26.8488 34.6866 26.2911 33.0834 25.2456C31.4802 26.2911 29.5285 26.8488 27.4374 26.8488C25.3463 26.8488 23.3248 26.2911 21.7216 25.2456C20.1185 26.2911 18.097 26.8488 16.0059 26.8488C13.9148 26.8488 11.8934 26.2911 10.2902 25.2456C8.68698 26.2911 6.66556 26.8488 4.57443 26.8488C3.18035 26.8488 1.71657 26.5699 0.461892 26.082C0.113371 25.9426 -0.0957412 25.5244 0.043667 25.1759C0.322483 24.7576 0.740708 24.6182 1.08923 24.7576C2.20449 25.1759 3.38946 25.4547 4.64414 25.4547C6.59585 25.4547 8.47787 24.897 9.94165 23.8515C10.2205 23.6424 10.4993 23.6424 10.7781 23.8515C12.1722 24.897 14.0542 25.4547 16.0756 25.4547C18.0273 25.4547 19.9093 24.897 21.3731 23.8515C21.6519 23.6424 21.9308 23.6424 22.2096 23.8515C23.6037 24.897 25.4857 25.4547 27.5071 25.4547C29.5285 25.4547 31.3408 24.897 32.8046 23.8515C33.0834 23.6424 33.3622 23.6424 33.6411 23.8515C35.0351 24.897 36.9171 25.4547 38.9386 25.4547C40.1932 25.4547 41.4479 25.2456 42.4935 24.7576C42.842 24.6182 43.2602 24.7576 43.3996 25.1759C43.539 25.5244 43.3996 25.9426 42.9814 26.082C41.657 26.5699 40.1932 26.8488 38.7992 26.8488Z" fill="#3499D7"/>
</svg>
