<svg width="44" height="44" viewBox="0 0 44 44" fill="none" xmlns="http://www.w3.org/2000/svg">
<g clip-path="url(#clip0_467_1129)">
<path d="M1.65625 19.375H29.875C34.7805 19.375 38.6359 14.8961 37.5695 9.80195C36.9461 6.82421 34.5426 4.4207 31.5648 3.79726C26.7168 2.78827 22.4184 6.24179 22.0246 10.8027C21.9918 11.1801 22.3117 11.4918 22.6809 11.4918H24.0098C24.3543 11.4918 24.6168 11.2211 24.6578 10.8848C25.0105 7.88241 27.898 5.65116 31.1137 6.38945C33.0086 6.82421 34.5426 8.3664 34.9855 10.2613C35.773 13.6902 33.1727 16.75 29.875 16.75H1.65625C1.29531 16.75 1 17.0453 1 17.4062V18.7187C1 19.0797 1.29531 19.375 1.65625 19.375ZM13.7969 22H1.65625C1.29531 22 1 22.2953 1 22.6562V23.9687C1 24.3297 1.29531 24.625 1.65625 24.625H13.8871C16.627 24.625 19.0797 26.6266 19.3422 29.35C19.6457 32.4754 17.1848 35.125 14.1168 35.125C11.4262 35.125 9.20313 33.0906 8.89961 30.4902C8.85859 30.1457 8.59609 29.8832 8.25156 29.8832H6.93906C6.56172 29.8832 6.25 30.2031 6.28281 30.5723C6.63555 34.6 10.0152 37.7582 14.125 37.7582C18.5547 37.7582 22.1313 34.0996 22 29.6453C21.8687 25.3223 18.1035 22 13.7969 22ZM33.427 22H20.9992C21.8605 22.7547 22.5906 23.6324 23.1648 24.625H33.5172C36.9461 24.625 40.0059 27.1187 40.3422 30.5312C40.7277 34.4441 37.6434 37.75 33.8125 37.75C30.8184 37.75 28.2918 35.7402 27.5043 32.9922C27.4223 32.7051 27.1762 32.5 26.8727 32.5H25.552C25.1418 32.5 24.8137 32.8773 24.9039 33.2793C25.8473 37.3398 29.4648 40.375 33.8125 40.375C38.9805 40.375 43.1559 36.1094 43 30.9086C42.8441 25.8801 38.4555 22 33.427 22Z" fill="#3499D7"/>
</g>
<defs>
<clipPath id="clip0_467_1129">
<rect width="42" height="42" fill="white" transform="translate(1 1)"/>
</clipPath>
</defs>
</svg>
