<svg width="35" height="35" viewBox="0 0 35 35" fill="none" xmlns="http://www.w3.org/2000/svg">
<circle cx="17.5" cy="17.5" r="17.5" fill="#3499D7"/>
<path d="M23.6875 12.75H12.3125C11.5876 12.75 11 13.3376 11 14.0625V21.9375C11 22.6624 11.5876 23.25 12.3125 23.25H23.6875C24.4124 23.25 25 22.6624 25 21.9375V14.0625C25 13.3376 24.4124 12.75 23.6875 12.75ZM23.6875 14.0625V15.1783C23.0744 15.6775 22.097 16.4539 20.0074 18.0901C19.5469 18.4523 18.6347 19.3225 18 19.3124C17.3654 19.3226 16.4529 18.4522 15.9926 18.0901C13.9034 16.4541 12.9257 15.6776 12.3125 15.1783V14.0625H23.6875ZM12.3125 21.9375V16.8624C12.9391 17.3615 13.8276 18.0618 15.1819 19.1223C15.7796 19.5927 16.8262 20.6313 18 20.625C19.168 20.6313 20.2014 19.6078 20.8179 19.1225C22.1721 18.062 23.0609 17.3616 23.6875 16.8625V21.9375H12.3125Z" fill="white"/>
</svg>
