<svg width="60" height="60" viewBox="0 0 60 60" fill="none" xmlns="http://www.w3.org/2000/svg">
<circle cx="30" cy="30" r="30" fill="#3499D7"/>
<path d="M37.6388 16.0241C35.6899 15.3291 33.6977 15 31.7378 15C26.5075 15 21.5142 17.3478 18.242 21.3624C17.8547 21.8377 18.0877 22.5542 18.671 22.762L31.9205 27.4864L26.733 41.2812H12.925C12.4139 41.2812 12 41.6868 12 42.1875V43.0938C12 43.5945 12.4139 44 12.925 44H44.3751C44.8862 44 45.3001 43.5945 45.3001 43.0938V42.1875C45.3001 41.6868 44.8862 41.2812 44.3751 41.2812H29.6913L34.5285 28.417L47.7479 33.1307C47.8537 33.1686 47.9618 33.1862 48.0676 33.1862C48.5457 33.1862 48.9828 32.8265 48.9949 32.3286C49.1701 25.2678 44.7879 18.5735 37.6388 16.0241ZM38.1649 26.8203L29.7716 23.8274C30.5955 22.3967 31.5372 21.1489 32.5559 20.2041C34.0209 18.8431 35.4483 18.2693 36.453 18.6312C37.4665 18.9926 38.1782 20.3259 38.4094 22.2913C38.5696 23.657 38.4724 25.2055 38.1649 26.8203ZM22.2878 21.1591C24.7674 19.0827 27.9424 17.8604 31.2227 17.742C30.9643 17.9549 29.0918 19.3534 27.1591 22.8963L22.2878 21.1591ZM40.7774 27.7521C41.2041 25.7657 41.4747 23.3868 41.015 21.0526C43.6611 23.2208 45.4747 26.2449 46.0372 29.6274L40.7774 27.7521Z" fill="#F7F9FE"/>
</svg>
